<?xml version="1.0" encoding="UTF-8" standalone="no"?>
<!-- Created with Inkscape (http://www.inkscape.org/) -->

<svg
   xmlns:dc="http://purl.org/dc/elements/1.1/"
   xmlns:cc="http://creativecommons.org/ns#"
   xmlns:rdf="http://www.w3.org/1999/02/22-rdf-syntax-ns#"
   xmlns:svg="http://www.w3.org/2000/svg"
   xmlns="http://www.w3.org/2000/svg"
   xmlns:sodipodi="http://sodipodi.sourceforge.net/DTD/sodipodi-0.dtd"
   xmlns:inkscape="http://www.inkscape.org/namespaces/inkscape"
   width="744.09448819"
   height="1052.3622047"
   id="svg2"
   version="1.1"
   inkscape:version="0.48.4 r9939"
   sodipodi:docname="problem2.svg">
  <sodipodi:namedview
     id="base"
     pagecolor="#ffffff"
     bordercolor="#666666"
     borderopacity="1.0"
     inkscape:pageopacity="0.0"
     inkscape:pageshadow="2"
     inkscape:zoom="0.78014966"
     inkscape:cx="372.04724"
     inkscape:cy="526.18109"
     inkscape:document-units="px"
     inkscape:current-layer="layer1"
     showgrid="false"
     inkscape:window-width="1215"
     inkscape:window-height="1000"
     inkscape:window-x="65"
     inkscape:window-y="24"
     inkscape:window-maximized="1" />
  <defs
     id="defs4" />
  <metadata
     id="metadata7">
    <rdf:RDF>
      <cc:Work
         rdf:about="">
        <dc:format>image/svg+xml</dc:format>
        <dc:type
           rdf:resource="http://purl.org/dc/dcmitype/StillImage" />
        <dc:title></dc:title>
      </cc:Work>
    </rdf:RDF>
  </metadata>
  <g
     id="layer1"
     inkscape:groupmode="layer"
     inkscape:label="Layer 1">
    <rect
       y="315.3241"
       x="5.8823466e-06"
       height="123.05331"
       width="746.0108"
       id="rect2985"
       style="fill:#e6e6e6;stroke-width:3.9000001;stroke-miterlimit:4;stroke-dasharray:none" />
    <rect
       y="555.02173"
       x="-2.7779104e-05"
       height="121.77151"
       width="742.16528"
       id="rect2985-2"
       style="fill:#e6e6e6;stroke-width:3.9000001;stroke-miterlimit:4;stroke-dasharray:none" />
    <flowRoot
       transform="translate(-89.726375,202.52524)"
       style="font-size:40px;font-style:normal;font-weight:normal;line-height:125%;letter-spacing:0px;word-spacing:0px;fill:#000000;fill-opacity:1;stroke:none;font-family:Sans"
       id="flowRoot3005"
       xml:space="preserve"><flowRegion
         id="flowRegion3007"><rect
           y="53.835823"
           x="126.89873"
           height="83.31736"
           width="880.60028"
           id="rect3009" /></flowRegion><flowPara
         style="font-size:32px;font-weight:normal;-inkscape-font-specification:Sans"
         id="flowPara3011">Modeling human perception via fMRI data</flowPara></flowRoot>    <flowRoot
       transform="matrix(0.8,0,0,0.8,101.5838,310.5738)"
       style="font-size:40px;font-style:normal;font-weight:normal;line-height:125%;letter-spacing:0px;word-spacing:0px;fill:#000000;fill-opacity:1;stroke:none;font-family:Sans"
       id="flowRoot3013"
       xml:space="preserve"><flowRegion
         id="flowRegion3015"><rect
           y="57.68124"
           x="-121.77151"
           height="64.090263"
           width="285.84259"
           id="rect3017" /></flowRegion><flowPara
         style="font-size:22px"
         id="flowPara3019">OBSERVED</flowPara><flowPara
         id="flowPara3021"
         style="font-size:22px">    DATA</flowPara></flowRoot>    <flowRoot
       transform="matrix(0.8,0,0,0.8,39.145597,115.81512)"
       style="font-size:40px;font-style:normal;font-weight:normal;line-height:125%;letter-spacing:0px;word-spacing:0px;fill:#000000;fill-opacity:1;stroke:none;font-family:Sans"
       id="flowRoot3023"
       xml:space="preserve"><flowRegion
         id="flowRegion3025"><rect
           y="447.35007"
           x="-41.017773"
           height="137.15317"
           width="351.21466"
           id="rect3027" /></flowRegion><flowPara
         style="font-size:36px"
         id="flowPara3029">MAPS</flowPara></flowRoot>    <flowRoot
       transform="matrix(0.8,0,0,0.8,-1.127398,91.958325)"
       style="font-size:40px;font-style:normal;font-weight:normal;line-height:125%;letter-spacing:0px;word-spacing:0px;fill:#000000;fill-opacity:1;stroke:none;font-family:Sans"
       id="flowRoot3031"
       xml:space="preserve"><flowRegion
         id="flowRegion3033"><rect
           y="630.64825"
           x="5.1272216"
           height="99.98082"
           width="524.25836"
           id="rect3035" /></flowRegion><flowPara
         style="font-size:22px"
         id="flowPara3037">  LATENT</flowPara><flowPara
         style="font-size:22px"
         id="flowPara3039">VARIABLES</flowPara></flowRoot>    <g
       id="g4063"
       transform="matrix(0.8,0,0,0.8,148.43305,-80.241018)">
      <rect
         y="821.15625"
         x="357.1427"
         height="93.25193"
         width="141.96054"
         id="rect3073-7-3-4"
         style="fill:#ffffff;stroke:#000000;stroke-width:3;stroke-miterlimit:4;stroke-dasharray:none" />
      <flowRoot
         transform="translate(163.26253,353.45029)"
         xml:space="preserve"
         id="flowRoot3065-5-9"
         style="font-size:18px;font-style:normal;font-variant:normal;font-weight:normal;font-stretch:normal;line-height:125%;letter-spacing:0px;word-spacing:0px;fill:#000000;fill-opacity:1;stroke:none;font-family:Serif;-inkscape-font-specification:Serif"><flowRegion
           id="flowRegion3067-0-0"><rect
             id="rect3069-1-1"
             width="807.53735"
             height="158.94386"
             x="196.11621"
             y="476.83157"
             style="font-size:18px;font-style:normal;font-variant:normal;font-weight:normal;font-stretch:normal;font-family:Serif;-inkscape-font-specification:Serif" /></flowRegion><flowPara
           id="flowPara3154-6">Brain response</flowPara></flowRoot>      <g
         style="font-style:normal;font-variant:normal;font-weight:normal;font-stretch:normal;letter-spacing:normal;word-spacing:normal;text-anchor:start;fill:none;stroke:#000000;stroke-linecap:butt;stroke-linejoin:miter;stroke-miterlimit:10.43299961;stroke-opacity:1;stroke-dasharray:none;stroke-dashoffset:0"
         id="g3388"
         transform="matrix(0.85039368,0,0,-0.85039368,-7.0054318,1240.7863)"
         xml:space="preserve"
         stroke-miterlimit="10.433"
         font-style="normal"
         font-variant="normal"
         font-weight="normal"
         font-stretch="normal"
         font-size-adjust="none"
         letter-spacing="normal"
         word-spacing="normal"><path
           style="fill:#000000;stroke-width:0"
           inkscape:connector-curvature="0"
           d="m 480.24,414.03 0,0.01 0,0.01 0,0.02 0,0.01 -0.01,0.01 0,0.01 0,0.02 0,0.01 -0.01,0.01 0,0.01 -0.01,0.02 -0.01,0.02 0,0.02 -0.02,0.01 -0.01,0.02 -0.01,0.01 -0.01,0.02 -0.02,0.01 -0.01,0.01 -0.02,0.01 -0.02,0.01 -0.02,0.01 -0.01,0.01 -0.02,0 -0.02,0.01 -0.02,0.01 -0.03,0 -0.02,0.01 -0.02,0 -0.02,0 -0.02,0 -0.03,0.01 -0.02,0 -0.02,0 -0.03,0 -0.04,0 c -0.86,0 -2.05,-0.75 -2.1,-0.75 -1,-0.64 -1.2,-1 -1.79,-1.84 -1.55,-2.35 -3.74,-4.03 -6.97,-4.03 -4.49,0 -8.53,3.23 -8.53,10.7 0,4.48 1.79,10.42 4.44,14.36 2.18,3.19 4.89,5.78 10.01,5.78 1.89,0 3.09,-0.7 3.09,-2.55 0,-1.75 -1.84,-5.28 -2.45,-6.28 -0.3,-0.55 -0.3,-0.64 -0.3,-0.75 0,-0.34 0.25,-0.34 0.55,-0.34 1,0 2.85,1.09 3.44,1.89 0.11,0.2 3,5.08 3,7.62 0,2.74 -2.25,3.14 -4.05,3.14 -7.22,0 -13.14,-4.73 -15.44,-7.53 -5.92,-7.17 -6.53,-14.89 -6.53,-17.48 0,-7.27 3.69,-11.31 9.47,-11.31 8.02,0 14.66,7.78 14.66,9.03 z"
           id="path3390" /><path
           style="fill:#000000;stroke-width:0"
           inkscape:connector-curvature="0"
           d="m 501.16,394.25 0,0.02 0,0.03 0,0.01 -0.01,0.02 0,0.01 0,0.02 -0.01,0.01 -0.01,0.02 0,0.02 -0.01,0.02 -0.02,0.02 -0.01,0.03 -0.02,0.02 -0.02,0.03 -0.02,0.03 -0.02,0.03 -0.03,0.03 -0.03,0.04 -0.01,0.02 -0.02,0.02 -0.02,0.02 -0.01,0.02 -0.02,0.02 -0.02,0.03 -0.02,0.02 -0.03,0.02 -0.02,0.03 -0.02,0.02 -0.03,0.03 -0.02,0.03 -0.03,0.03 -0.03,0.03 -0.03,0.03 -0.03,0.03 -0.03,0.03 -0.03,0.03 -0.03,0.04 -0.04,0.03 -0.03,0.04 -0.04,0.03 -0.04,0.04 -0.03,0.04 c -6.22,6.28 -7.82,15.69 -7.82,23.31 0,8.67 1.89,17.35 8.02,23.56 0.64,0.61 0.64,0.71 0.64,0.86 0,0.35 -0.19,0.49 -0.48,0.49 -0.5,0 -4.99,-3.38 -7.93,-9.7 -2.54,-5.49 -3.14,-11.02 -3.14,-15.21 0,-3.89 0.55,-9.9 3.28,-15.54 2.99,-6.13 7.29,-9.36 7.79,-9.36 0.29,0 0.48,0.14 0.48,0.5 z"
           id="path3392" /><path
           style="fill:#000000;stroke-width:0"
           inkscape:connector-curvature="0"
           d="m 517.35,421.84 v 1.75 12.3 c 0,1.04 0,2.7 3.08,2.7 4.23,0 6.33,-1.75 6.33,-7.63 0,-6.43 -1.55,-7.37 -9.41,-7.37 v -1.75 h 1.78 l 7.49,-11.56 c 0.48,-0.8 1.68,-2.74 2.23,-3.49 l 1.3,1.16 -8.97,13.89 c 0.34,0.05 0.55,0.11 0.95,0.11 0.74,0 1.85,0.09 2.58,0.19 0.75,-1.19 6.14,-10.07 10.27,-14.19 h -4.83 l -1.3,-1.16 c 0.35,-0.59 0.5,-0.59 1.64,-0.59 h 6.88 c 0.9,0 1.65,0 1.65,0.89 0,0.41 -0.31,0.75 -0.75,0.86 -1.84,0.39 -4.28,3.69 -5.48,5.28 -0.34,0.48 -2.84,3.78 -6.17,9.16 4.42,0.79 8.72,2.68 8.72,8.62 h -1.75 c 0,-3.23 -1.5,-5.78 -6.63,-6.73 h 0 c 1.39,1.84 1.55,4.48 1.55,6.68 0,2.4 -0.3,5.04 -1.89,7.07 2.03,-0.44 6.97,-1.99 6.97,-7.02 h 1.75 c 0,6.92 -7.33,9.31 -13.21,9.31 h -15.65 c -0.89,0 -1.69,0 -1.69,-0.89 0,-0.84 0.95,-0.84 1.34,-0.84 2.85,0 3.1,-0.36 3.1,-2.84 v -24.97 l 1.73,-0.1 v 25.16 c 0,0.5 0,1.84 -0.39,2.75 h 5.67 c -0.64,-0.8 -0.64,-1.8 -0.64,-2.55 v -25.36 c 0,-0.5 0,-1.84 0.39,-2.73 h -5.42 c 0.39,0.89 0.39,2.28 0.39,2.73 l -1.73,0.1 c 0,-2.49 -0.25,-2.83 -3.1,-2.83 -0.39,0 -1.34,0 -1.34,-0.86 0,-0.89 0.8,-0.89 1.69,-0.89 h 13.65 c 0.89,0 1.64,0 1.64,0.89 0,0.86 -0.84,0.86 -1.39,0.86 -2.84,0 -3.03,0.39 -3.03,2.83 z"
           id="path3394" /><path
           style="fill:#000000;stroke-width:0"
           inkscape:connector-curvature="0"
           d="m 549.52,435.84 0.25,-0.01 0.25,-0.01 0.24,-0.03 0.24,-0.04 0.23,-0.05 0.23,-0.06 0.22,-0.07 0.21,-0.08 0.21,-0.1 0.2,-0.1 0.2,-0.12 0.19,-0.12 0.18,-0.14 0.18,-0.15 0.16,-0.16 0.16,-0.17 0.15,-0.18 0.15,-0.19 0.13,-0.21 0.13,-0.21 0.11,-0.23 0.11,-0.23 0.1,-0.25 0.09,-0.25 0.08,-0.27 0.07,-0.28 0.06,-0.29 0.05,-0.3 0.04,-0.31 0.03,-0.32 0.01,-0.34 0.01,-0.34 c 0,-4.33 -2.52,-5.61 -4.53,-5.61 -1.39,0 -4.47,0.38 -5.93,2.44 1.63,0.06 2.02,1.22 2.02,1.95 0,1.11 -0.84,1.91 -1.92,1.91 -0.97,0 -1.95,-0.6 -1.95,-2.02 0,-3.28 3.62,-5.4 7.84,-5.4 4.84,0 8.19,3.25 8.19,6.73 0,2.72 -2.22,5.44 -6.07,6.23 3.66,1.33 4.99,3.94 4.99,6.07 0,2.75 -3.17,4.81 -7.03,4.81 -3.88,0 -6.83,-1.89 -6.83,-4.67 0,-1.19 0.76,-1.85 1.81,-1.85 1.08,0 1.77,0.8 1.77,1.77 0,1.02 -0.69,1.75 -1.77,1.81 1.22,1.55 3.61,1.92 4.91,1.92 1.56,0 3.76,-0.76 3.76,-3.79 0,-1.47 -0.48,-3.07 -1.39,-4.14 -1.15,-1.33 -2.12,-1.41 -3.87,-1.5 -0.88,-0.08 -0.94,-0.08 -1.11,-0.11 -0.08,0 -0.36,-0.07 -0.36,-0.46 0,-0.48 0.31,-0.48 0.9,-0.48 z"
           id="path3396" /><path
           style="fill:#000000;stroke-width:0"
           inkscape:connector-curvature="0"
           d="m 576.83,418.65 0,0.37 0,0.39 -0.01,0.39 -0.02,0.41 -0.04,0.84 -0.06,0.88 -0.08,0.92 -0.11,0.95 -0.13,0.97 -0.16,1.01 -0.2,1.02 -0.23,1.03 -0.27,1.05 -0.3,1.06 -0.35,1.07 -0.39,1.07 -0.22,0.53 -0.22,0.53 -0.24,0.53 -0.25,0.53 c -2.98,6.12 -7.27,9.36 -7.77,9.36 -0.29,0 -0.5,-0.19 -0.5,-0.49 0,-0.15 0,-0.25 0.94,-1.15 4.89,-4.92 7.74,-12.85 7.74,-23.27 0,-8.51 -1.85,-17.28 -8.03,-23.56 -0.65,-0.59 -0.65,-0.7 -0.65,-0.84 0,-0.3 0.21,-0.5 0.5,-0.5 0.5,0 4.97,3.39 7.93,9.71 2.53,5.47 3.12,11 3.12,15.19 z"
           id="path3398" /></g>    </g>
    <path
       style="fill:#0000ff;stroke:#0000ff;stroke-width:0.62458193px;stroke-linecap:butt;stroke-linejoin:miter;stroke-opacity:1"
       d="m 311.29099,589.54053 c 0,0 22.45092,-103.43301 85.14238,-102.64578 62.69146,0.78724 80.60331,72.42578 80.60331,72.42578 l 7.44979,-4.12501 -4.90572,28.66588 -26.96932,-12.73232 10.58428,-5.51066 c 0,0 -14.65515,-57.46828 -65.13399,-61.40446 -50.47884,-3.93619 -68.16692,86.34475 -68.16692,86.34475 z"
       id="path4123"
       inkscape:connector-curvature="0"
       sodipodi:nodetypes="cscccccscc" />
    <g
       id="g3950"
       transform="matrix(0.8,0,0,0.8,94.084512,-138.43498)">
      <rect
         y="895.50092"
         x="200.76245"
         height="93.25193"
         width="141.96054"
         id="rect3073-7-3-3"
         style="fill:#ffffff;stroke:#000000;stroke-width:3;stroke-miterlimit:4;stroke-dasharray:none" />
      <flowRoot
         transform="translate(7.2983461,418.70371)"
         xml:space="preserve"
         id="flowRoot3065-5"
         style="font-size:18px;font-style:normal;font-variant:normal;font-weight:normal;font-stretch:normal;line-height:125%;letter-spacing:0px;word-spacing:0px;fill:#000000;fill-opacity:1;stroke:none;font-family:Serif;-inkscape-font-specification:Serif"><flowRegion
           id="flowRegion3067-0"><rect
             id="rect3069-1"
             width="807.53735"
             height="158.94386"
             x="196.11621"
             y="476.83157"
             style="font-size:18px;font-style:normal;font-variant:normal;font-weight:normal;font-stretch:normal;font-family:Serif;-inkscape-font-specification:Serif" /></flowRegion><flowPara
           id="flowPara3154">    Semantic</flowPara><flowPara
           id="flowPara3185">representation</flowPara></flowRoot>      <g
         id="g3700"
         transform="matrix(0.8,0,0,0.8,7.9319509,689.54551)">
        <g
           id="g3702"
           transform="matrix(1.0629921,0,0,-1.0629921,-186.02362,789.27165)"
           xml:space="preserve"
           stroke-miterlimit="10.433"
           font-style="normal"
           font-variant="normal"
           font-weight="normal"
           font-stretch="normal"
           font-size-adjust="none"
           letter-spacing="normal"
           word-spacing="normal"
           style="font-style:normal;font-variant:normal;font-weight:normal;font-stretch:normal;letter-spacing:normal;word-spacing:normal;text-anchor:start;fill:none;stroke:#000000;stroke-linecap:butt;stroke-linejoin:miter;stroke-miterlimit:10.43299961;stroke-opacity:1;stroke-dasharray:none;stroke-dashoffset:0"><path
             d="m 468.88,421.84 v 1.75 12.3 c 0,1.04 0,2.7 3.08,2.7 4.23,0 6.33,-1.75 6.33,-7.63 0,-6.43 -1.55,-7.37 -9.41,-7.37 v -1.75 h 1.78 l 7.48,-11.56 c 0.49,-0.8 1.69,-2.74 2.24,-3.49 l 1.3,1.16 -8.97,13.89 c 0.34,0.05 0.54,0.11 0.95,0.11 0.73,0 1.84,0.09 2.58,0.19 0.75,-1.19 6.14,-10.07 10.26,-14.19 h -4.82 l -1.3,-1.16 c 0.34,-0.59 0.5,-0.59 1.64,-0.59 h 6.87 c 0.91,0 1.66,0 1.66,0.89 0,0.41 -0.31,0.75 -0.75,0.86 -1.84,0.39 -4.28,3.69 -5.48,5.28 -0.35,0.48 -2.85,3.78 -6.18,9.16 4.43,0.79 8.72,2.68 8.72,8.62 h -1.75 c 0,-3.23 -1.5,-5.78 -6.62,-6.73 h 0 c 1.39,1.84 1.55,4.48 1.55,6.68 0,2.4 -0.3,5.04 -1.9,7.07 2.04,-0.44 6.97,-1.99 6.97,-7.02 h 1.75 c 0,6.92 -7.32,9.31 -13.2,9.31 H 458 c -0.89,0 -1.68,0 -1.68,-0.89 0,-0.84 0.95,-0.84 1.34,-0.84 2.84,0 3.09,-0.36 3.09,-2.84 v -24.97 l 1.74,-0.1 v 25.16 c 0,0.5 0,1.84 -0.39,2.75 h 5.67 c -0.64,-0.8 -0.64,-1.8 -0.64,-2.55 v -25.36 c 0,-0.5 0,-1.84 0.39,-2.73 h -5.42 c 0.39,0.89 0.39,2.28 0.39,2.73 l -1.74,0.1 c 0,-2.49 -0.25,-2.83 -3.09,-2.83 -0.39,0 -1.34,0 -1.34,-0.86 0,-0.89 0.79,-0.89 1.68,-0.89 h 13.66 c 0.89,0 1.64,0 1.64,0.89 0,0.86 -0.84,0.86 -1.39,0.86 -2.84,0 -3.03,0.39 -3.03,2.83 z"
             id="path3704"
             inkscape:connector-curvature="0"
             style="fill:#000000;stroke-width:0" /><path
             d="m 494.13,419.95 -0.02,-0.09 -0.02,-0.09 -0.02,-0.08 -0.02,-0.08 -0.02,-0.07 -0.03,-0.07 -0.02,-0.07 -0.02,-0.06 -0.02,-0.06 -0.03,-0.06 -0.03,-0.05 -0.03,-0.05 -0.03,-0.05 -0.03,-0.04 -0.04,-0.04 -0.04,-0.03 -0.04,-0.04 -0.05,-0.03 -0.05,-0.03 -0.06,-0.02 -0.06,-0.03 -0.06,-0.02 -0.07,-0.02 -0.07,-0.01 -0.08,-0.02 -0.05,0 -0.04,-0.01 -0.05,-0.01 -0.04,0 -0.05,0 -0.05,-0.01 -0.05,0 -0.06,0 -0.05,-0.01 -0.06,0 -0.06,0 -0.06,0 -0.06,0 -0.06,0 c -0.46,0 -0.94,0 -0.94,-0.74 0,-0.39 0.31,-0.53 0.48,-0.53 0.91,0 2.07,0.14 3,0.14 1.19,0 2.5,-0.14 3.66,-0.14 0.31,0 0.7,0.11 0.7,0.77 0,0.5 -0.5,0.5 -0.9,0.5 -0.79,0 -1.72,0 -1.72,0.41 0,0.18 0.25,1.09 0.39,1.6 0.42,1.85 0.9,3.74 1.28,5.19 0.42,-0.69 1.5,-2.04 3.59,-2.04 v 0.96 c -2.47,0 -3.09,2.69 -3.09,3.04 0,0.14 0.06,0.39 0.09,0.53 l 1.75,7 c 2.02,2.68 3.77,3.2 4.88,3.2 1.36,0 2.54,-1.02 2.54,-3.38 0,-1.43 -0.76,-4.98 -1.81,-7.01 -0.87,-1.7 -2.58,-3.38 -4.36,-3.38 v -0.96 c 4.25,0 8.96,4.7 8.96,9.89 0,4.07 -2.83,5.81 -5.22,5.81 -2.17,0 -4.02,-1.45 -4.96,-2.44 -0.59,1.99 -2.54,2.44 -3.59,2.44 -1.36,0 -2.19,-0.91 -2.75,-1.85 -0.7,-1.18 -1.25,-3.26 -1.25,-3.48 0,-0.45 0.48,-0.45 0.59,-0.45 0.49,0 0.52,0.11 0.77,1.04 0.52,2.04 1.19,3.77 2.55,3.77 0.9,0 1.14,-0.77 1.14,-1.7 0,-0.39 -0.07,-0.85 -0.11,-1.05 z"
             id="path3706"
             inkscape:connector-curvature="0"
             style="fill:#000000;stroke-width:0" /></g>      </g>
    </g>
    <path
       style="fill:#ff0000;stroke:#ff0000;stroke-width:1px;stroke-linecap:butt;stroke-linejoin:miter;stroke-opacity:1"
       d="m 168.29844,409.13488 18.53898,-9.91361 77.49605,170.10877 8.31299,-4.75323 -4.25612,27.30355 -26.61618,-9.82758 8.02895,-4.70007 z"
       id="path4095"
       inkscape:connector-curvature="0"
       sodipodi:nodetypes="cccccccc" />
    <g
       id="g3861"
       transform="matrix(0.8,0,0,0.8,-124.71966,229.05861)">
      <rect
         y="137.3131"
         x="311.63864"
         height="93.25193"
         width="141.96054"
         id="rect3073"
         style="fill:#ffffff;stroke:#000000;stroke-width:3;stroke-miterlimit:4;stroke-dasharray:none" />
      <flowRoot
         xml:space="preserve"
         id="flowRoot3049"
         style="font-size:40px;font-style:normal;font-variant:normal;font-weight:normal;font-stretch:normal;line-height:125%;letter-spacing:0px;word-spacing:0px;fill:#000000;fill-opacity:1;stroke:none;font-family:Serif;-inkscape-font-specification:Serif"
         transform="translate(157.66206,-329.42398)"><flowRegion
           id="flowRegion3051"><rect
             id="rect3053"
             width="474.26794"
             height="96.135399"
             x="162.78928"
             y="475.54977"
             style="font-style:normal;font-variant:normal;font-weight:normal;font-stretch:normal;font-family:Serif;-inkscape-font-specification:Serif" /></flowRegion><flowPara
           id="flowPara3055"
           style="font-size:18px;font-style:normal;font-variant:normal;font-weight:normal;font-stretch:normal;font-family:Serif;-inkscape-font-specification:Serif">Raw stimulus</flowPara></flowRoot>      <g
         transform="matrix(0.8,0,0,0.8,90.54126,-78.960493)"
         id="g3245">
        <g
           style="font-style:normal;font-variant:normal;font-weight:normal;font-stretch:normal;letter-spacing:normal;word-spacing:normal;text-anchor:start;fill:none;stroke:#000000;stroke-linecap:butt;stroke-linejoin:miter;stroke-miterlimit:10.43299961;stroke-opacity:1;stroke-dasharray:none;stroke-dashoffset:0"
           id="content"
           transform="matrix(1.0629921,0,0,-1.0629921,-186.02362,789.27165)"
           xml:space="preserve"
           stroke-miterlimit="10.433"
           font-style="normal"
           font-variant="normal"
           font-weight="normal"
           font-stretch="normal"
           font-size-adjust="none"
           letter-spacing="normal"
           word-spacing="normal"><path
             style="fill:#000000;stroke-width:0"
             inkscape:connector-curvature="0"
             d="m 480.24,414.03 0,0.01 0,0.01 0,0.02 0,0.01 -0.01,0.01 0,0.01 0,0.02 0,0.01 -0.01,0.01 0,0.01 -0.01,0.02 -0.01,0.02 0,0.02 -0.02,0.01 -0.01,0.02 -0.01,0.01 -0.01,0.02 -0.02,0.01 -0.01,0.01 -0.02,0.01 -0.02,0.01 -0.02,0.01 -0.01,0.01 -0.02,0 -0.02,0.01 -0.02,0.01 -0.03,0 -0.02,0.01 -0.02,0 -0.02,0 -0.02,0 -0.03,0.01 -0.02,0 -0.02,0 -0.03,0 -0.04,0 c -0.86,0 -2.05,-0.75 -2.1,-0.75 -1,-0.64 -1.2,-1 -1.79,-1.84 -1.55,-2.35 -3.74,-4.03 -6.97,-4.03 -4.49,0 -8.53,3.23 -8.53,10.7 0,4.48 1.79,10.42 4.44,14.36 2.18,3.19 4.89,5.78 10.01,5.78 1.89,0 3.09,-0.7 3.09,-2.55 0,-1.75 -1.84,-5.28 -2.45,-6.28 -0.3,-0.55 -0.3,-0.64 -0.3,-0.75 0,-0.34 0.25,-0.34 0.55,-0.34 1,0 2.85,1.09 3.44,1.89 0.11,0.2 3,5.08 3,7.62 0,2.74 -2.25,3.14 -4.05,3.14 -7.22,0 -13.14,-4.73 -15.44,-7.53 -5.92,-7.17 -6.53,-14.89 -6.53,-17.48 0,-7.27 3.69,-11.31 9.47,-11.31 8.02,0 14.66,7.78 14.66,9.03 z"
             id="path3248" /><path
             style="fill:#000000;stroke-width:0"
             inkscape:connector-curvature="0"
             d="m 501.16,394.25 0,0.02 0,0.03 0,0.01 -0.01,0.02 0,0.01 0,0.02 -0.01,0.01 -0.01,0.02 0,0.02 -0.01,0.02 -0.02,0.02 -0.01,0.03 -0.02,0.02 -0.02,0.03 -0.02,0.03 -0.02,0.03 -0.03,0.03 -0.03,0.04 -0.01,0.02 -0.02,0.02 -0.02,0.02 -0.01,0.02 -0.02,0.02 -0.02,0.03 -0.02,0.02 -0.03,0.02 -0.02,0.03 -0.02,0.02 -0.03,0.03 -0.02,0.03 -0.03,0.03 -0.03,0.03 -0.03,0.03 -0.03,0.03 -0.03,0.03 -0.03,0.03 -0.03,0.04 -0.04,0.03 -0.03,0.04 -0.04,0.03 -0.04,0.04 -0.03,0.04 c -6.22,6.28 -7.82,15.69 -7.82,23.31 0,8.67 1.89,17.35 8.02,23.56 0.64,0.61 0.64,0.71 0.64,0.86 0,0.35 -0.19,0.49 -0.48,0.49 -0.5,0 -4.99,-3.38 -7.93,-9.7 -2.54,-5.49 -3.14,-11.02 -3.14,-15.21 0,-3.89 0.55,-9.9 3.28,-15.54 2.99,-6.13 7.29,-9.36 7.79,-9.36 0.29,0 0.48,0.14 0.48,0.5 z"
             id="path3250" /><path
             style="fill:#000000;stroke-width:0"
             inkscape:connector-curvature="0"
             d="m 517.35,421.84 v 1.75 12.3 c 0,1.04 0,2.7 3.08,2.7 4.23,0 6.33,-1.75 6.33,-7.63 0,-6.43 -1.55,-7.37 -9.41,-7.37 v -1.75 h 1.78 l 7.49,-11.56 c 0.48,-0.8 1.68,-2.74 2.23,-3.49 l 1.3,1.16 -8.97,13.89 c 0.34,0.05 0.55,0.11 0.95,0.11 0.74,0 1.85,0.09 2.58,0.19 0.75,-1.19 6.14,-10.07 10.27,-14.19 h -4.83 l -1.3,-1.16 c 0.35,-0.59 0.5,-0.59 1.64,-0.59 h 6.88 c 0.9,0 1.65,0 1.65,0.89 0,0.41 -0.31,0.75 -0.75,0.86 -1.84,0.39 -4.28,3.69 -5.48,5.28 -0.34,0.48 -2.84,3.78 -6.17,9.16 4.42,0.79 8.72,2.68 8.72,8.62 h -1.75 c 0,-3.23 -1.5,-5.78 -6.63,-6.73 h 0 c 1.39,1.84 1.55,4.48 1.55,6.68 0,2.4 -0.3,5.04 -1.89,7.07 2.03,-0.44 6.97,-1.99 6.97,-7.02 h 1.75 c 0,6.92 -7.33,9.31 -13.21,9.31 h -15.65 c -0.89,0 -1.69,0 -1.69,-0.89 0,-0.84 0.95,-0.84 1.34,-0.84 2.85,0 3.1,-0.36 3.1,-2.84 v -24.97 l 1.73,-0.1 v 25.16 c 0,0.5 0,1.84 -0.39,2.75 h 5.67 c -0.64,-0.8 -0.64,-1.8 -0.64,-2.55 v -25.36 c 0,-0.5 0,-1.84 0.39,-2.73 h -5.42 c 0.39,0.89 0.39,2.28 0.39,2.73 l -1.73,0.1 c 0,-2.49 -0.25,-2.83 -3.1,-2.83 -0.39,0 -1.34,0 -1.34,-0.86 0,-0.89 0.8,-0.89 1.69,-0.89 h 13.65 c 0.89,0 1.64,0 1.64,0.89 0,0.86 -0.84,0.86 -1.39,0.86 -2.84,0 -3.03,0.39 -3.03,2.83 z"
             id="path3252" /><path
             style="fill:#000000;stroke-width:0"
             inkscape:connector-curvature="0"
             d="m 557.59,430.54 h -1.18 c -0.1,-0.76 -0.46,-2.83 -0.91,-3.17 -0.27,-0.2 -2.95,-0.2 -3.44,-0.2 h -6.42 c 3.66,3.23 4.88,4.2 6.97,5.84 2.58,2.06 4.98,4.22 4.98,7.53 0,4.22 -3.68,6.8 -8.15,6.8 -4.32,0 -7.25,-3.03 -7.25,-6.23 0,-1.79 1.5,-1.96 1.86,-1.96 0.83,0 1.84,0.6 1.84,1.85 0,0.62 -0.25,1.84 -2.06,1.84 1.08,2.47 3.45,3.23 5.09,3.23 3.49,0 5.3,-2.7 5.3,-5.53 0,-3.03 -2.16,-5.43 -3.28,-6.68 l -8.39,-8.3 c -0.36,-0.31 -0.36,-0.39 -0.36,-1.36 h 14.36 z"
             id="path3254" /><path
             style="fill:#000000;stroke-width:0"
             inkscape:connector-curvature="0"
             d="m 576.83,418.65 0,0.37 0,0.39 -0.01,0.39 -0.02,0.41 -0.04,0.84 -0.06,0.88 -0.08,0.92 -0.11,0.95 -0.13,0.97 -0.16,1.01 -0.2,1.02 -0.23,1.03 -0.27,1.05 -0.3,1.06 -0.35,1.07 -0.39,1.07 -0.22,0.53 -0.22,0.53 -0.24,0.53 -0.25,0.53 c -2.98,6.12 -7.27,9.36 -7.77,9.36 -0.29,0 -0.5,-0.19 -0.5,-0.49 0,-0.15 0,-0.25 0.94,-1.15 4.89,-4.92 7.74,-12.85 7.74,-23.27 0,-8.51 -1.85,-17.28 -8.03,-23.56 -0.65,-0.59 -0.65,-0.7 -0.65,-0.84 0,-0.3 0.21,-0.5 0.5,-0.5 0.5,0 4.97,3.39 7.93,9.71 2.53,5.47 3.12,11 3.12,15.19 z"
             id="path3256" /></g>      </g>
    </g>
    <g
       id="g3893"
       transform="matrix(0.8,0,0,0.8,381.20892,-344.29291)">
      <rect
         y="859.61041"
         x="277.67081"
         height="93.25193"
         width="141.96054"
         id="rect3073-7"
         style="fill:#ffffff;stroke:#000000;stroke-width:3;stroke-miterlimit:4;stroke-dasharray:none" />
      <flowRoot
         xml:space="preserve"
         id="flowRoot3057"
         style="font-size:40px;font-style:normal;font-weight:normal;line-height:125%;letter-spacing:0px;word-spacing:0px;fill:#000000;fill-opacity:1;stroke:none;font-family:Sans"
         transform="translate(103.82624,402.48687)"><flowRegion
           id="flowRegion3059"><rect
             id="rect3061"
             width="769.08319"
             height="98.699013"
             x="190.989"
             y="472.98618" /></flowRegion><flowPara
           id="flowPara3063"
           style="font-size:18px;font-style:normal;font-variant:normal;font-weight:normal;font-stretch:normal;font-family:Serif;-inkscape-font-specification:Serif">Voxel space</flowPara></flowRoot>      <g
         transform="matrix(0.8,0,0,0.8,83.388386,648.52775)"
         id="g3542">
        <g
           word-spacing="normal"
           letter-spacing="normal"
           font-size-adjust="none"
           font-stretch="normal"
           font-weight="normal"
           font-variant="normal"
           font-style="normal"
           stroke-miterlimit="10.433"
           xml:space="preserve"
           transform="matrix(1.0629921,0,0,-1.0629921,-186.02362,789.27165)"
           id="g3544"
           style="font-style:normal;font-variant:normal;font-weight:normal;font-stretch:normal;letter-spacing:normal;word-spacing:normal;text-anchor:start;fill:none;stroke:#000000;stroke-linecap:butt;stroke-linejoin:miter;stroke-miterlimit:10.43299961;stroke-opacity:1;stroke-dasharray:none;stroke-dashoffset:0"><path
             id="path3546"
             d="m 468.88,421.84 v 1.75 12.3 c 0,1.04 0,2.7 3.08,2.7 4.23,0 6.33,-1.75 6.33,-7.63 0,-6.43 -1.55,-7.37 -9.41,-7.37 v -1.75 h 1.78 l 7.48,-11.56 c 0.49,-0.8 1.69,-2.74 2.24,-3.49 l 1.3,1.16 -8.97,13.89 c 0.34,0.05 0.54,0.11 0.95,0.11 0.73,0 1.84,0.09 2.58,0.19 0.75,-1.19 6.14,-10.07 10.26,-14.19 h -4.82 l -1.3,-1.16 c 0.34,-0.59 0.5,-0.59 1.64,-0.59 h 6.87 c 0.91,0 1.66,0 1.66,0.89 0,0.41 -0.31,0.75 -0.75,0.86 -1.84,0.39 -4.28,3.69 -5.48,5.28 -0.35,0.48 -2.85,3.78 -6.18,9.16 4.43,0.79 8.72,2.68 8.72,8.62 h -1.75 c 0,-3.23 -1.5,-5.78 -6.62,-6.73 h 0 c 1.39,1.84 1.55,4.48 1.55,6.68 0,2.4 -0.3,5.04 -1.9,7.07 2.04,-0.44 6.97,-1.99 6.97,-7.02 h 1.75 c 0,6.92 -7.32,9.31 -13.2,9.31 H 458 c -0.89,0 -1.68,0 -1.68,-0.89 0,-0.84 0.95,-0.84 1.34,-0.84 2.84,0 3.09,-0.36 3.09,-2.84 v -24.97 l 1.74,-0.1 v 25.16 c 0,0.5 0,1.84 -0.39,2.75 h 5.67 c -0.64,-0.8 -0.64,-1.8 -0.64,-2.55 v -25.36 c 0,-0.5 0,-1.84 0.39,-2.73 h -5.42 c 0.39,0.89 0.39,2.28 0.39,2.73 l -1.74,0.1 c 0,-2.49 -0.25,-2.83 -3.09,-2.83 -0.39,0 -1.34,0 -1.34,-0.86 0,-0.89 0.79,-0.89 1.68,-0.89 h 13.66 c 0.89,0 1.64,0 1.64,0.89 0,0.86 -0.84,0.86 -1.39,0.86 -2.84,0 -3.03,0.39 -3.03,2.83 z"
             inkscape:connector-curvature="0"
             style="fill:#000000;stroke-width:0" /><path
             id="path3548"
             d="m 509.25,438.56 0.01,0.03 0.01,0.02 0,0.03 0.01,0.03 0.01,0.04 0,0.03 0.01,0.03 0,0.03 0.01,0.04 0.01,0.03 0,0.04 0,0.03 0.01,0.03 0,0.04 0,0.03 0,0.03 c 0,0.22 -0.14,0.49 -0.45,0.49 -0.36,0 -1.81,-1.17 -2.52,-2.3 -0.34,0.7 -1.5,2.3 -3.73,2.3 v -0.97 c 2.44,0 3.11,-2.69 3.11,-3.03 0,-0.17 -0.08,-0.39 -0.11,-0.52 l -1.64,-6.45 c -0.17,-0.59 -0.17,-0.66 -0.63,-1.22 -1.36,-1.61 -3,-2.55 -4.36,-2.55 -1.28,0 -2.53,0.91 -2.53,3.38 0,1.86 1,5.69 1.82,7.08 1.59,2.79 3.37,3.31 4.34,3.31 v 0.97 c -4.45,0 -8.99,-4.91 -8.99,-9.92 0,-3.38 2.27,-5.78 5.27,-5.78 1.98,0 3.63,1.25 4.39,1.9 -0.03,-0.09 -1.12,-4.48 -1.26,-5.08 -0.49,-1.92 -0.52,-1.95 -2.68,-1.98 -0.42,0 -0.9,0 -0.9,-0.77 0,-0.22 0.17,-0.5 0.51,-0.5 1.16,0 2.44,0.14 3.63,0.14 1.19,0 2.65,-0.14 3.73,-0.14 0.31,0 0.69,0.11 0.69,0.77 0,0.5 -0.48,0.5 -0.91,0.5 -0.76,0 -1.7,0 -1.7,0.41 0,0.1 0,0.18 0.17,0.76 z"
             inkscape:connector-curvature="0"
             style="fill:#000000;stroke-width:0" /></g>      </g>
    </g>
    <g
       id="g4105">
      <path
         transform="matrix(0.8,0,0,0.8,-58.45032,-135.48682)"
         d="m 440.94105,783.82397 a 85.880959,45.504089 0 1 1 -171.76192,0 85.880959,45.504089 0 1 1 171.76192,0 z"
         sodipodi:ry="45.504089"
         sodipodi:rx="85.880959"
         sodipodi:cy="783.82397"
         sodipodi:cx="355.06009"
         id="path3970"
         style="fill:#ffffff;stroke:#ff0000;stroke-width:3;stroke-miterlimit:4;stroke-dasharray:none"
         sodipodi:type="arc" />
      <flowRoot
         xml:space="preserve"
         id="flowRoot3065"
         style="font-size:18px;font-style:normal;font-variant:normal;font-weight:normal;font-stretch:normal;line-height:125%;letter-spacing:0px;word-spacing:0px;fill:#000000;fill-opacity:1;stroke:none;font-family:Serif;-inkscape-font-specification:Serif"
         transform="matrix(0.8,0,0,0.8,23.585216,83.958252)"><flowRegion
           id="flowRegion3067"><rect
             id="rect3069"
             width="807.53735"
             height="158.94386"
             x="196.11621"
             y="476.83157"
             style="font-size:18px;font-style:normal;font-variant:normal;font-weight:normal;font-stretch:normal;font-family:Serif;-inkscape-font-specification:Serif" /></flowRegion><flowPara
           id="flowPara3071">Feature map</flowPara></flowRoot>      <g
         id="g3866"
         transform="matrix(0.64,0,0,0.64,17.840338,283.87068)">
        <g
           word-spacing="normal"
           letter-spacing="normal"
           font-size-adjust="none"
           font-stretch="normal"
           font-weight="normal"
           font-variant="normal"
           font-style="normal"
           stroke-miterlimit="10.433"
           xml:space="preserve"
           transform="matrix(1.0629921,0,0,-1.0629921,-186.02362,789.27165)"
           id="g3868"
           style="font-style:normal;font-variant:normal;font-weight:normal;font-stretch:normal;letter-spacing:normal;word-spacing:normal;text-anchor:start;fill:none;stroke:#000000;stroke-linecap:butt;stroke-linejoin:miter;stroke-miterlimit:10.43299961;stroke-opacity:1;stroke-dasharray:none;stroke-dashoffset:0"><path
             id="path3870"
             d="m 469.47,440.03 0.01,0.02 0,0.03 0.01,0.02 0,0.02 0,0.03 0.01,0.02 0,0.02 0,0.02 0.01,0.04 0.01,0.04 0,0.04 0.01,0.03 0,0.03 0.01,0.03 0,0.03 0,0.03 0.01,0.02 0,0.03 0,0.02 0,0.02 0.01,0.02 0,0.02 0,0.02 0,0.02 0,0.01 0,0.02 0,0.02 0,0.01 0.01,0.03 0,0.03 0,0.03 0,0.02 c 0,0.35 -0.1,0.5 -0.55,0.5 -0.55,0 -2.05,-0.75 -3.03,-1.25 -2.3,-1.14 -4.19,-2.09 -4.19,-2.98 0,-0.3 0.34,-0.3 0.55,-0.3 0.59,0 1.89,0.69 2.84,1.14 -0.61,-4.87 -1.8,-11.25 -2.7,-15.54 -1.85,-8.47 -2.78,-11.5 -5.22,-16.35 -0.25,-0.43 -0.25,-0.54 -0.25,-0.59 0,-0.34 0.39,-0.34 0.5,-0.34 0.8,0 2.87,0.89 3.67,2.29 0.66,1.14 2.55,4.78 4.05,10.56 1.09,4.29 2.98,10.8 6.51,15.94 2.3,3.24 4.39,4.74 7.54,4.74 2.68,0 5.12,-1.75 5.12,-4.39 0,-4.38 -4.73,-5.97 -9.91,-7.72 -0.59,-0.21 -4.03,-1.39 -4.03,-2.64 0,-0.3 0.35,-0.35 0.49,-0.35 0.2,0 1.36,0.19 2.4,0.19 5.03,0 9.11,-2.98 9.11,-7.72 0,-6.17 -5.28,-8.17 -9.81,-8.17 -3.84,0 -5.69,2.09 -6.33,2.8 -0.2,0.25 -0.25,0.34 -0.65,0.34 -1.1,0 -3.63,-1.55 -3.63,-2.44 0,-0.15 1.94,-3.43 7.31,-3.43 7.03,0 17.35,4.98 17.35,13 0,4.18 -2.8,7.32 -7.88,8.26 3.99,1.7 9.81,5.28 9.81,9.97 0,2.89 -2.39,5.03 -6.07,5.03 -1.69,0 -8.07,-0.45 -14.1,-7.92 z"
             inkscape:connector-curvature="0"
             style="fill:#000000;stroke-width:0" /></g>      </g>
    </g>
    <g
       id="g4133">
      <path
         d="m 440.94105,783.82397 a 85.880959,45.504089 0 1 1 -171.76192,0 85.880959,45.504089 0 1 1 171.76192,0 z"
         sodipodi:ry="45.504089"
         sodipodi:rx="85.880959"
         sodipodi:cy="783.82397"
         sodipodi:cx="355.06009"
         id="path3970-6"
         style="fill:#ffffff;stroke:#0000ff;stroke-width:3;stroke-miterlimit:4;stroke-dasharray:none"
         sodipodi:type="arc"
         transform="matrix(0.8,0,0,0.8,117.157,-136.12773)" />
      <flowRoot
         transform="matrix(0.8,0,0,0.8,201.9549,87.57454)"
         xml:space="preserve"
         id="flowRoot3065-6"
         style="font-size:18px;font-style:normal;font-variant:normal;font-weight:normal;font-stretch:normal;line-height:125%;letter-spacing:0px;word-spacing:0px;fill:#000000;fill-opacity:1;stroke:none;font-family:Serif;-inkscape-font-specification:Serif"><flowRegion
           id="flowRegion3067-2"><rect
             id="rect3069-0"
             width="807.53735"
             height="158.94386"
             x="196.11621"
             y="476.83157"
             style="font-size:18px;font-style:normal;font-variant:normal;font-weight:normal;font-stretch:normal;font-family:Serif;-inkscape-font-specification:Serif" /></flowRegion><flowPara
           id="flowPara3071-9">Neural code</flowPara></flowRoot>      <g
         id="g4036"
         transform="matrix(0.64,0,0,0.64,195.88794,282.73492)">
        <g
           id="g4038"
           transform="matrix(1.0629921,0,0,-1.0629921,-186.02362,789.27165)"
           xml:space="preserve"
           stroke-miterlimit="10.433"
           font-style="normal"
           font-variant="normal"
           font-weight="normal"
           font-stretch="normal"
           font-size-adjust="none"
           letter-spacing="normal"
           word-spacing="normal"
           style="font-style:normal;font-variant:normal;font-weight:normal;font-stretch:normal;letter-spacing:normal;word-spacing:normal;text-anchor:start;fill:none;stroke:#000000;stroke-linecap:butt;stroke-linejoin:miter;stroke-miterlimit:10.43299961;stroke-opacity:1;stroke-dasharray:none;stroke-dashoffset:0"><path
             d="m 470.61,422.39 h 4.83 c 3.75,0 4.14,-0.8 4.14,-2.24 0,-0.36 0,-0.95 -0.34,-2.44 -0.11,-0.25 -0.16,-0.45 -0.16,-0.56 0,-0.39 0.3,-0.59 0.6,-0.59 0.5,0 0.5,0.15 0.75,1.05 l 2.75,10.81 c 0.14,0.54 0.14,0.65 0.14,0.79 0,0.1 -0.1,0.55 -0.6,0.55 -0.5,0 -0.54,-0.25 -0.75,-1.05 -1.04,-3.87 -2.18,-4.78 -6.42,-4.78 h -4.53 l 3.19,12.66 c 0.43,1.75 0.5,1.94 2.68,1.94 h 6.58 c 6.13,0 7.27,-1.64 7.27,-5.47 0,-1.16 0,-1.35 -0.14,-2.7 -0.11,-0.65 -0.11,-0.74 -0.11,-0.9 0,-0.25 0.15,-0.59 0.61,-0.59 0.54,0 0.59,0.3 0.69,1.25 l 1,8.61 c 0.15,1.34 -0.1,1.34 -1.35,1.34 h -24.4 c -1,0 -1.5,0 -1.5,-1 0,-0.54 0.45,-0.54 1.39,-0.54 1.84,0 3.23,0 3.23,-0.89 0,-0.21 0,-0.3 -0.25,-1.21 l -6.56,-26.34 c -0.5,-1.95 -0.61,-2.34 -4.55,-2.34 -0.84,0 -1.39,0 -1.39,-0.96 0,-0.59 0.59,-0.59 0.75,-0.59 1.44,0 5.13,0.16 6.58,0.16 1.64,0 5.78,-0.16 7.42,-0.16 0.45,0 1.05,0 1.05,0.95 0,0.39 -0.3,0.49 -0.3,0.55 -0.16,0.05 -0.25,0.05 -1.39,0.05 -1.11,0 -1.36,0 -2.59,0.09 -1.46,0.16 -1.6,0.36 -1.6,1 0,0.09 0,0.41 0.19,1.14 z"
             id="path4040"
             inkscape:connector-curvature="0"
             style="fill:#000000;stroke-width:0" /></g>      </g>
    </g>
    <path
       style="fill:#008000;stroke:#008000;stroke-width:1px;stroke-linecap:butt;stroke-linejoin:miter;stroke-opacity:1"
       d="m 538.1642,588.17336 -18.71534,-9.57651 95.55169,-160.6627 -8.64501,-4.11859 24.85646,-12.07289 7.10406,27.46879 -8.43937,-3.91556 z"
       id="path4095-0"
       inkscape:connector-curvature="0"
       sodipodi:nodetypes="cccccccc" />
    <g
       id="g4151">
      <path
         d="m 440.94105,783.82397 a 85.880959,45.504089 0 1 1 -171.76192,0 85.880959,45.504089 0 1 1 171.76192,0 z"
         sodipodi:ry="45.504089"
         sodipodi:rx="85.880959"
         sodipodi:cy="783.82397"
         sodipodi:cx="355.06009"
         id="path3970-9-4"
         style="fill:#ffffff;stroke:#008000;stroke-width:3;stroke-miterlimit:4;stroke-dasharray:none"
         sodipodi:type="arc"
         transform="matrix(0.8,0,0,0.8,297.89155,-134.84593)" />
      <flowRoot
         transform="matrix(0.8,0,0,0.8,362.18056,97.059888)"
         xml:space="preserve"
         id="flowRoot3065-63"
         style="font-size:18px;font-style:normal;font-variant:normal;font-weight:normal;font-stretch:normal;line-height:125%;letter-spacing:0px;word-spacing:0px;fill:#000000;fill-opacity:1;stroke:none;font-family:Serif;-inkscape-font-specification:Serif"><flowRegion
           id="flowRegion3067-5"><rect
             id="rect3069-4"
             width="807.53735"
             height="158.94386"
             x="196.11621"
             y="476.83157"
             style="font-size:18px;font-style:normal;font-variant:normal;font-weight:normal;font-stretch:normal;font-family:Serif;-inkscape-font-specification:Serif" /></flowRegion><flowPara
           id="flowPara3071-5">Imaging modality</flowPara></flowRoot>      <g
         id="g4212"
         transform="matrix(0.64,0,0,0.64,369.92678,292.32572)">
        <g
           word-spacing="normal"
           letter-spacing="normal"
           font-size-adjust="none"
           font-stretch="normal"
           font-weight="normal"
           font-variant="normal"
           font-style="normal"
           stroke-miterlimit="10.433"
           xml:space="preserve"
           transform="matrix(1.0629921,0,0,-1.0629921,-186.02362,789.27165)"
           id="g4214"
           style="font-style:normal;font-variant:normal;font-weight:normal;font-stretch:normal;letter-spacing:normal;word-spacing:normal;text-anchor:start;fill:none;stroke:#000000;stroke-linecap:butt;stroke-linejoin:miter;stroke-miterlimit:10.43299961;stroke-opacity:1;stroke-dasharray:none;stroke-dashoffset:0"><path
             id="path4216"
             d="m 474.71,434.04 0.13,-0.62 0.13,-0.64 0.14,-0.66 0.14,-0.68 0.15,-0.7 0.15,-0.72 0.32,-1.47 0.34,-1.52 0.35,-1.55 0.38,-1.57 0.39,-1.58 0.41,-1.56 0.43,-1.55 0.44,-1.51 0.47,-1.46 0.23,-0.71 0.24,-0.7 0.25,-0.67 0.25,-0.65 0.25,-0.64 0.26,-0.6 0.26,-0.59 0.26,-0.55 c 1.1,-2.14 1.64,-3.25 2.14,-3.25 0.21,0 0.3,0 1.19,0.9 3.8,3.64 6.39,6.53 9.88,10.52 l 10.9,12.7 c -0.7,-4.23 -2.48,-15.45 -2.48,-21.28 0,-1.34 0.04,-2.64 0.18,-3.98 0.07,-0.55 0.25,-1.99 2.35,-1.99 2.09,0 5.87,2.19 5.87,3.19 0,0.3 -0.29,0.34 -0.43,0.34 -0.66,0 -1.64,-0.45 -2.21,-0.79 -1.18,0.14 -1.28,0.93 -1.39,2.09 -0.14,1.59 -0.14,3.09 -0.14,3.28 0,5.53 2.19,20.63 3.63,26.81 0.06,0.35 0.11,0.44 0.11,0.85 0,0.2 -0.05,0.75 -0.41,0.75 -0.2,0 -0.25,-0.05 -1.19,-1.16 -4.69,-5.67 -19.23,-23.11 -24.17,-27.3 -1.23,2.64 -2.14,4.54 -3.87,11.52 -1.46,5.62 -2.3,9.77 -3.15,14.59 -0.15,0.71 -0.4,2.05 -0.4,2.14 -0.14,0.25 -0.39,0.25 -0.55,0.25 -0.89,0 -2.98,-1.09 -3.14,-2.14 -0.59,-4.18 -1.59,-10.76 -5.08,-20.28 -3.98,-10.61 -5.08,-10.61 -6.03,-10.61 -0.64,0 -2.48,0.39 -3.58,1.39 -0.25,0.25 -0.36,0.25 -0.45,0.25 -0.7,0 -1.8,-2.23 -1.8,-3.64 0,-0.43 0,-1.04 1.6,-1.89 1.25,-0.64 2.43,-0.69 2.68,-0.69 3.1,0 6.04,7.13 7.04,9.66 2.34,5.63 5.12,13.5 6.53,20.67 z"
             inkscape:connector-curvature="0"
             style="fill:#000000;stroke-width:0" /></g>      </g>
    </g>
    <g
       id="g4288"
       transform="translate(-49.990405,-452.47728)">
      <path
         inkscape:connector-curvature="0"
         id="path4265"
         d="m 399.92327,825.48264 0,51.27221 39.73596,1.28181 6.40903,41.01777 11.53625,-41.01777 70.49929,1.2818 1.2818,-52.55402 z"
         style="fill:#ffff00;stroke:#ffff00;stroke-width:3;stroke-linecap:round;stroke-linejoin:round;stroke-miterlimit:4;stroke-opacity:1;stroke-dasharray:none" />
      <flowRoot
         transform="translate(101.26262,119.2079)"
         style="font-size:40px;font-style:normal;font-weight:bold;line-height:125%;letter-spacing:0px;word-spacing:0px;fill:#000000;fill-opacity:1;stroke:none;font-family:Sans;-inkscape-font-specification:Sawasdee Bold"
         id="flowRoot4179"
         xml:space="preserve"><flowRegion
           id="flowRegion4181"><rect
             style="font-weight:bold;-inkscape-font-specification:Sawasdee Bold"
             y="719.09277"
             x="310.1969"
             height="129.46234"
             width="238.41579"
             id="rect4183" /></flowRegion><flowPara
           style="font-size:22px;font-style:normal;font-variant:normal;font-weight:bold;font-stretch:normal;font-family:Sawasdee;-inkscape-font-specification:Sawasdee Bold"
           id="flowPara4185">Regression</flowPara></flowRoot>    </g>
    <flowRoot
       xml:space="preserve"
       id="flowRoot4187"
       style="fill:black;stroke:none;stroke-opacity:1;stroke-width:1px;stroke-linejoin:miter;stroke-linecap:butt;fill-opacity:1;font-family:Sans;font-style:normal;font-weight:normal;font-size:40px;line-height:125%;letter-spacing:0px;word-spacing:0px"><flowRegion
         id="flowRegion4189"><rect
           id="rect4191"
           width="248.67024"
           height="92.289986"
           x="91.008179"
           y="767.80139" /></flowRegion><flowPara
         id="flowPara4193"></flowPara></flowRoot>    <g
       id="g4302"
       transform="translate(-35.890549,-349.93286)">
      <path
         sodipodi:nodetypes="ccccccc"
         inkscape:connector-curvature="0"
         id="path4263"
         d="m 219.54504,921.39603 -173.370602,0.21303 -0.02862,-47.29406 163.445642,-1.26598 20.7747,-11.27111 -10.78487,27.93555 z"
         style="fill:#ffff00;stroke:#ffff00;stroke-width:3;stroke-linecap:round;stroke-linejoin:round;stroke-miterlimit:4;stroke-opacity:1;stroke-dasharray:none" />
      <flowRoot
         transform="translate(-255.59241,165.75099)"
         style="font-size:40px;font-style:normal;font-weight:bold;line-height:125%;letter-spacing:0px;word-spacing:0px;fill:#000000;fill-opacity:1;stroke:none;font-family:Sans;-inkscape-font-specification:Sawasdee Bold"
         id="flowRoot4179-3"
         xml:space="preserve"><flowRegion
           id="flowRegion4181-3"><rect
             style="font-weight:bold;-inkscape-font-specification:Sawasdee Bold"
             y="719.09277"
             x="310.1969"
             height="129.46234"
             width="238.41579"
             id="rect4183-1" /></flowRegion><flowPara
           style="font-size:22px;font-style:normal;font-variant:normal;font-weight:bold;font-stretch:normal;font-family:Sawasdee;-inkscape-font-specification:Sawasdee Bold"
           id="flowPara4185-6">Model selection</flowPara></flowRoot>    </g>
    <path
       style="fill:#ffff00;stroke:#ffff00;stroke-width:3;stroke-linecap:round;stroke-linejoin:round;stroke-opacity:1;stroke-miterlimit:4;stroke-dasharray:none"
       d="m 393.15204,636.76865 -28.97507,0 0,6.24953 -12.21499,-10.51057 11.36278,-9.37428 0.28407,5.39731 74.99432,-0.56814 0.56814,-5.96545 8.52208,9.65836 -8.80615,9.37429 0,-5.96546 -34.37239,1.13628 0.28407,49.144 c 28.12287,-0.56813 55.96167,1.13628 82.66419,1.13628 l -0.28407,60.22271 -180.1,0 0.56814,-60.79085 85.50488,-0.85221 z"
       id="path4295"
       inkscape:connector-curvature="0"
       sodipodi:nodetypes="ccccccccccccccccccc" />
    <flowRoot
       xml:space="preserve"
       id="flowRoot4179-0"
       style="font-size:40px;font-style:normal;font-weight:bold;line-height:125%;letter-spacing:0px;word-spacing:0px;fill:#000000;fill-opacity:1;stroke:none;font-family:Sans;-inkscape-font-specification:Sawasdee Bold"
       transform="translate(-4.9177448,-28.13098)"><flowRegion
         id="flowRegion4181-7"><rect
           id="rect4183-0"
           width="238.41579"
           height="129.46234"
           x="310.1969"
           y="719.09277"
           style="font-weight:bold;-inkscape-font-specification:Sawasdee Bold" /></flowRegion><flowPara
         id="flowPara4185-7"
         style="font-size:22px;font-style:normal;font-variant:normal;font-weight:bold;font-stretch:normal;font-family:Sawasdee;-inkscape-font-specification:Sawasdee Bold">     Estimating</flowPara><flowPara
         style="font-size:22px;font-style:normal;font-variant:normal;font-weight:bold;font-stretch:normal;font-family:Sawasdee;-inkscape-font-specification:Sawasdee Bold"
         id="flowPara4249">Mutual Information</flowPara></flowRoot>  </g>
</svg>
