<?xml version="1.0" encoding="UTF-8" standalone="no"?>
<!-- Created with Inkscape (http://www.inkscape.org/) -->

<svg
   xmlns:dc="http://purl.org/dc/elements/1.1/"
   xmlns:cc="http://creativecommons.org/ns#"
   xmlns:rdf="http://www.w3.org/1999/02/22-rdf-syntax-ns#"
   xmlns:svg="http://www.w3.org/2000/svg"
   xmlns="http://www.w3.org/2000/svg"
   xmlns:sodipodi="http://sodipodi.sourceforge.net/DTD/sodipodi-0.dtd"
   xmlns:inkscape="http://www.inkscape.org/namespaces/inkscape"
   id="svg2"
   version="1.1"
   inkscape:version="0.48.4 r9939"
   width="407.5"
   height="270"
   xml:space="preserve"
   sodipodi:docname="illus_piK_flat_flipped.pdf"><metadata
     id="metadata8"><rdf:RDF><cc:Work
         rdf:about=""><dc:format>image/svg+xml</dc:format><dc:type
           rdf:resource="http://purl.org/dc/dcmitype/StillImage" /><dc:title></dc:title></cc:Work></rdf:RDF></metadata><defs
     id="defs6"><clipPath
       clipPathUnits="userSpaceOnUse"
       id="clipPath20"><path
         d="m 59.04,73.44 237.6,0 0,83.52 -237.6,0 0,-83.52 z"
         id="path22" /></clipPath><clipPath
       clipPathUnits="userSpaceOnUse"
       id="clipPath28"><path
         d="m 59.04,73.44 237.6,0 0,83.52 -237.6,0 0,-83.52 z"
         id="path30" /></clipPath><clipPath
       clipPathUnits="userSpaceOnUse"
       id="clipPath108"><path
         d="m 59.04,73.44 237.6,0 0,83.52 -237.6,0 0,-83.52 z"
         id="path110" /></clipPath></defs><sodipodi:namedview
     pagecolor="#ffffff"
     bordercolor="#666666"
     borderopacity="1"
     objecttolerance="10"
     gridtolerance="10"
     guidetolerance="10"
     inkscape:pageopacity="0"
     inkscape:pageshadow="2"
     inkscape:window-width="1215"
     inkscape:window-height="1000"
     id="namedview4"
     showgrid="false"
     inkscape:zoom="2.6552147"
     inkscape:cx="203.75"
     inkscape:cy="135"
     inkscape:window-x="65"
     inkscape:window-y="24"
     inkscape:window-maximized="1"
     inkscape:current-layer="g10" /><g
     id="g10"
     inkscape:groupmode="layer"
     inkscape:label="illus_piK_flat"
     transform="matrix(1.25,0,0,-1.25,0,270)"><g
       id="g12"><path
         d="m 0,0 326.88,0 0,216 L 0,216 0,0 z"
         style="fill:#ffffff;fill-opacity:1;fill-rule:nonzero;stroke:none"
         id="path14" /></g><g
       id="g16"><g
         id="g18"
         clip-path="url(#clipPath20)" /></g><g
       id="g24"><g
         id="g26"
         clip-path="url(#clipPath28)"><path
           d="m 67.84,76.53 1.47,0.01 1.46,0 1.47,0.01 1.47,0.01 1.46,0.01 1.47,0.02 1.47,0.02 1.46,0.02 1.47,0.03 1.47,0.04 1.46,0.04 1.47,0.06 1.47,0.06 1.46,0.08 1.47,0.09 1.47,0.11 1.46,0.14 1.47,0.15 1.47,0.19 1.46,0.21 1.47,0.25 1.47,0.28 1.46,0.33 1.47,0.38 1.47,0.43 1.46,0.49 1.47,0.55 1.47,0.61 1.46,0.69 1.47,0.76 1.47,0.84 1.46,0.93 1.47,1.02 1.47,1.1 1.46,1.2 1.47,1.29 1.47,1.38 1.46,1.48 1.47,1.57 1.47,1.65 1.46,1.74 1.47,1.82 1.47,1.9 1.46,1.96 1.47,2.03 1.47,2.07 1.46,2.12 1.47,2.14 1.47,2.17 1.46,2.18 1.47,2.18 1.47,2.17 1.46,2.15 1.47,2.12 1.47,2.07 1.46,2.02 1.47,1.96 1.47,1.9 1.46,1.82 1.47,1.74 1.47,1.66 1.46,1.57 1.47,1.47 1.47,1.39 1.46,1.29 1.47,1.19 1.47,1.11 1.46,1.01 1.47,0.93 1.47,0.84 1.46,0.77 1.47,0.68 1.47,0.62 1.46,0.55 1.47,0.48 1.47,0.43 1.46,0.38 1.47,0.33 1.47,0.29 1.46,0.25 1.47,0.21 1.47,0.18 1.46,0.16 1.47,0.13 1.47,0.11 1.46,0.09 1.47,0.08 1.47,0.07 1.46,0.05 1.47,0.05 1.47,0.03 1.46,0.03 1.47,0.03 1.47,0.01 1.46,0.02 1.47,0.01 1.47,0.01 1.46,0.01 1.47,0.01 1.47,0 1.46,0 1.47,0.01 1.47,0 1.46,0 1.47,0 1.47,0 1.46,0 1.47,0.01 1.47,0 1.46,0 1.47,0 1.47,0 1.46,0 1.47,0 1.47,0 1.46,0 1.47,0 1.47,0 1.46,0 1.47,0 1.47,0 1.46,0 1.47,0 1.47,0 1.46,0 1.47,0 1.47,0 1.46,0 1.47,0 1.47,0 1.46,0 1.47,0 1.47,0 1.46,0 1.47,0 1.47,0 1.46,0 1.47,0 1.47,0 1.46,0 1.47,0 1.47,0 1.46,0 1.47,0 1.47,0 1.46,0 1.47,0 1.47,0 1.46,0 1.47,0"
           style="fill:none;stroke:#46800d;stroke-width:2.25;stroke-linecap:round;stroke-linejoin:round;stroke-miterlimit:10;stroke-opacity:1;stroke-dasharray:none"
           id="path32"
           inkscape:connector-curvature="0" /></g></g><g
       id="g34"><path
         d="m 67.84,73.44 220,0"
         style="fill:none;stroke:#000000;stroke-opacity:1;stroke-width:0.75;stroke-linecap:round;stroke-linejoin:round;stroke-miterlimit:10;stroke-dasharray:none"
         id="path36" /><path
         d="m 67.84,73.44 0,-7.2"
         style="fill:none;stroke:#000000;stroke-opacity:1;stroke-width:0.75;stroke-linecap:round;stroke-linejoin:round;stroke-miterlimit:10;stroke-dasharray:none"
         id="path38" /><path
         d="m 141.17,73.44 0,-7.2"
         style="fill:none;stroke:#000000;stroke-opacity:1;stroke-width:0.75;stroke-linecap:round;stroke-linejoin:round;stroke-miterlimit:10;stroke-dasharray:none"
         id="path40" /><path
         d="m 214.51,73.44 0,-7.2"
         style="fill:none;stroke:#000000;stroke-opacity:1;stroke-width:0.75;stroke-linecap:round;stroke-linejoin:round;stroke-miterlimit:10;stroke-dasharray:none"
         id="path42" /><path
         d="m 287.84,73.44 0,-7.2"
         style="fill:none;stroke:#000000;stroke-opacity:1;stroke-width:0.75;stroke-linecap:round;stroke-linejoin:round;stroke-miterlimit:10;stroke-dasharray:none"
         id="path44" /><text
         transform="matrix(1,0,0,-1,61,47.52)"
         id="text46"><tspan
           style="fill:#000000;fill-opacity:1;fill-rule:nonzero;stroke:none;font-family:Helvetica;font-variant:normal;font-weight:normal;font-size:12;writing-mode:lr;-inkscape-font-specification:Helvetica"
           x="0 7.008"
           y="0"
           sodipodi:role="line"
           id="tspan48">−5</tspan></text>
<text
         transform="matrix(1,0,0,-1,137.84,47.52)"
         id="text50"><tspan
           style="fill:#000000;fill-opacity:1;fill-rule:nonzero;stroke:none;font-family:Helvetica;font-variant:normal;font-weight:normal;font-size:12;writing-mode:lr;-inkscape-font-specification:Helvetica"
           x="0"
           y="0"
           id="tspan52">0</tspan></text>
<text
         transform="matrix(1,0,0,-1,211.17,47.52)"
         id="text54"><tspan
           style="fill:#000000;fill-opacity:1;fill-rule:nonzero;stroke:none;font-family:Helvetica;font-variant:normal;font-weight:normal;font-size:12;writing-mode:lr;-inkscape-font-specification:Helvetica"
           x="0"
           y="0"
           id="tspan56">5</tspan></text>
<text
         transform="matrix(1,0,0,-1,281.17,47.52)"
         id="text58"><tspan
           style="fill:#000000;fill-opacity:1;fill-rule:nonzero;stroke:none;font-family:Helvetica;font-variant:normal;font-weight:normal;font-size:12;writing-mode:lr;-inkscape-font-specification:Helvetica"
           x="0 6.672"
           y="0"
           sodipodi:role="line"
           id="tspan60">10</tspan></text>
<path
         d="m 59.04,76.53 0,77.35"
         style="fill:none;stroke:#000000;stroke-opacity:1;stroke-width:0.75;stroke-linecap:round;stroke-linejoin:round;stroke-miterlimit:10;stroke-dasharray:none"
         id="path62" /><path
         d="m 59.04,76.53 -7.2,0"
         style="fill:none;stroke:#000000;stroke-opacity:1;stroke-width:0.75;stroke-linecap:round;stroke-linejoin:round;stroke-miterlimit:10;stroke-dasharray:none"
         id="path64" /><path
         d="m 59.04,92 -7.2,0"
         style="fill:none;stroke:#000000;stroke-opacity:1;stroke-width:0.75;stroke-linecap:round;stroke-linejoin:round;stroke-miterlimit:10;stroke-dasharray:none"
         id="path66" /><path
         d="m 59.04,107.47 -7.2,0"
         style="fill:none;stroke:#000000;stroke-opacity:1;stroke-width:0.75;stroke-linecap:round;stroke-linejoin:round;stroke-miterlimit:10;stroke-dasharray:none"
         id="path68" /><path
         d="m 59.04,122.94 -7.2,0"
         style="fill:none;stroke:#000000;stroke-opacity:1;stroke-width:0.75;stroke-linecap:round;stroke-linejoin:round;stroke-miterlimit:10;stroke-dasharray:none"
         id="path70" /><path
         d="m 59.04,138.41 -7.2,0"
         style="fill:none;stroke:#000000;stroke-opacity:1;stroke-width:0.75;stroke-linecap:round;stroke-linejoin:round;stroke-miterlimit:10;stroke-dasharray:none"
         id="path72" /><path
         d="m 59.04,153.88 -7.2,0"
         style="fill:none;stroke:#000000;stroke-opacity:1;stroke-width:0.75;stroke-linecap:round;stroke-linejoin:round;stroke-miterlimit:10;stroke-dasharray:none"
         id="path74" /><text
         transform="matrix(0,1,1,0,41.76,68.19)"
         id="text76"><tspan
           style="fill:#000000;fill-opacity:1;fill-rule:nonzero;stroke:none;font-family:Helvetica;font-variant:normal;font-weight:normal;font-size:12;writing-mode:lr;-inkscape-font-specification:Helvetica"
           x="0 6.672 10.008"
           y="0"
           sodipodi:role="line"
           id="tspan78">0.0</tspan></text>
<text
         transform="matrix(0,1,1,0,41.76,99.13)"
         id="text80"><tspan
           style="fill:#000000;fill-opacity:1;fill-rule:nonzero;stroke:none;font-family:Helvetica;font-variant:normal;font-weight:normal;font-size:12;writing-mode:lr;-inkscape-font-specification:Helvetica"
           x="0 6.672 10.008"
           y="0"
           sodipodi:role="line"
           id="tspan82">0.4</tspan></text>
<text
         transform="matrix(0,1,1,0,41.76,130.07)"
         id="text84"><tspan
           style="fill:#000000;fill-opacity:1;fill-rule:nonzero;stroke:none;font-family:Helvetica;font-variant:normal;font-weight:normal;font-size:12;writing-mode:lr;-inkscape-font-specification:Helvetica"
           x="0 6.672 10.008"
           y="0"
           sodipodi:role="line"
           id="tspan86">0.8</tspan></text>
<path
         d="m 59.04,73.44 237.6,0 0,83.52 -237.6,0 0,-83.52"
         style="fill:none;stroke:#000000;stroke-opacity:1;stroke-width:0.75;stroke-linecap:round;stroke-linejoin:round;stroke-miterlimit:10;stroke-dasharray:none"
         id="path88" /></g><g
       id="g90"><text
         transform="matrix(1,0,0,-1,174.38,21.4)"
         id="text92"><tspan
           style="fill:#000000;fill-opacity:1;fill-rule:nonzero;stroke:none;font-family:Symbol;font-variant:normal;font-weight:normal;font-size:12;writing-mode:lr;-inkscape-font-specification:Symbol"
           x="0"
           y="0"
           id="tspan94">µ</tspan></text>
<text
         transform="matrix(0,1,1,0,10.76,109.24)"
         id="text96"><tspan
           style="fill:#000000;fill-opacity:1;fill-rule:nonzero;stroke:none;font-family:Symbol;font-variant:normal;font-weight:normal;font-size:12;writing-mode:lr;-inkscape-font-specification:Symbol"
           x="0"
           y="0"
           id="tspan98">π</tspan></text>
<text
         transform="matrix(0,1,1,0,12.96,115.83)"
         id="text100"><tspan
           style="fill:#000000;fill-opacity:1;fill-rule:nonzero;stroke:none;font-family:Helvetica;font-variant:normal;font-weight:normal;font-size:8;writing-mode:lr;-inkscape-font-specification:Helvetica"
           x="0"
           y="0"
           id="tspan102">K</tspan></text>
</g><g
       clip-path="url(#clipPath108)"
       id="g106"><path
         inkscape:connector-curvature="0"
         id="path112"
         style="fill:none;stroke:#000000;stroke-width:1.5;stroke-linecap:round;stroke-linejoin:round;stroke-miterlimit:10;stroke-opacity:1;stroke-dasharray:none"
         d="m 141.17,73.44 0,83.52" /><path
         inkscape:connector-curvature="0"
         id="path114"
         style="fill:none;stroke:#460d80;stroke-width:2.25;stroke-linecap:round;stroke-linejoin:round;stroke-miterlimit:10;stroke-opacity:1;stroke-dasharray:none"
         d="m 67.84,76.53 1.47,0 1.46,0 1.47,0 1.47,0 1.46,0 1.47,0 1.47,0 1.46,0 1.47,0 1.47,0 1.46,0 1.47,0 1.47,0 1.46,0 1.47,0 1.47,0 1.46,0 1.47,0 1.47,0 1.46,0 1.47,0 1.47,0 1.46,0.01 1.47,0 1.47,0.01 1.46,0 1.47,0.01 1.47,0.02 1.46,0.01 1.47,0.03 1.47,0.03 1.46,0.03 1.47,0.05 1.47,0.07 1.46,0.08 1.47,0.1 1.47,0.13 1.46,0.16 1.47,0.2 1.47,0.24 1.46,0.29 1.47,0.35 1.47,0.41 1.46,0.49 1.47,0.57 1.47,0.67 1.46,0.77 1.47,0.88 1.47,1 1.46,1.12 1.47,1.26 1.47,1.39 1.46,1.54 1.47,1.67 1.47,1.82 1.46,1.95 1.47,2.08 1.47,2.2 1.46,2.32 1.47,2.41 1.47,2.5 1.46,2.56 1.47,2.61 1.47,2.65 1.46,2.65 1.47,2.65 1.47,2.61 1.46,2.57 1.47,2.51 1.47,2.42 1.46,2.33 1.47,2.23 1.47,2.1 1.46,1.98 1.47,1.85 1.47,1.71 1.46,1.58 1.47,1.44 1.47,1.3 1.46,1.18 1.47,1.06 1.47,0.94 1.46,0.83 1.47,0.73 1.47,0.63 1.46,0.55 1.47,0.47 1.47,0.41 1.46,0.34 1.47,0.29 1.47,0.24 1.46,0.2 1.47,0.17 1.47,0.14 1.46,0.11 1.47,0.09 1.47,0.07 1.46,0.06 1.47,0.05 1.47,0.04 1.46,0.03 1.47,0.02 1.47,0.02 1.46,0.01 1.47,0.01 1.47,0.01 1.46,0.01 1.47,0 1.47,0.01 1.46,0 1.47,0 1.47,0 1.46,0 1.47,0 1.47,0.01 1.46,0 1.47,0 1.47,0 1.46,0 1.47,0 1.47,0 1.46,0 1.47,0 1.47,0 1.46,0 1.47,0 1.47,0 1.46,0 1.47,0 1.47,0 1.46,0 1.47,0 1.47,0 1.46,0 1.47,0 1.47,0 1.46,0 1.47,0 1.47,0 1.46,0 1.47,0 1.47,0 1.46,0 1.47,0 1.47,0 1.46,0 1.47,0 1.47,0 1.46,0 1.47,0" /><text
         id="text116"
         transform="scale(1,-1)"
         x="175.23712"
         y="-120.59411"><tspan
           id="tspan118"
           sodipodi:role="line"
           y="-120.59411"
           x="175.23712 184.23712 189.24112 199.75311 204.75711"
           style="font-size:18px;font-variant:normal;font-weight:normal;writing-mode:lr-tb;fill:#000000;fill-opacity:1;fill-rule:nonzero;stroke:none;font-family:Helvetica;-inkscape-font-specification:Helvetica">k = 2</tspan></text>
<text
         id="text120"
         transform="scale(1,-1)"
         x="79.481346"
         y="-100.48414"><tspan
           id="tspan122"
           sodipodi:role="line"
           y="-100.48414"
           x="79.481346 88.481346 93.485352 103.99735 109.00135 119.00935"
           style="font-size:18px;font-variant:normal;font-weight:normal;writing-mode:lr-tb;fill:#000000;fill-opacity:1;fill-rule:nonzero;stroke:none;font-family:Helvetica;-inkscape-font-specification:Helvetica">k = 10</tspan></text>
</g></g></svg>