<?xml version="1.0" encoding="UTF-8"?>
<!DOCTYPE svg PUBLIC "-//W3C//DTD SVG 1.1//EN" "http://www.w3.org/Graphics/SVG/1.1/DTD/svg11.dtd">
<svg version="1.1" xmlns="http://www.w3.org/2000/svg" xmlns:xlink="http://www.w3.org/1999/xlink" x="0px" y="0px" width="1984.252" height="1984.252" viewBox="0, 0, 1984.252, 1984.252">
  <g id="Layer 1">
    <g>
      <path d="M538.415,562.273 C387.865,600.781 300.033,672.296 274.361,723.639 C220.182,831.997 224.851,947.602 241.355,1116.052 C257.858,1284.502 303.701,1504.797 377.049,1600.15 C560.855,1839.098 1337.91,1919.215 1458.935,1893.543 C1570.682,1869.839 1686.314,1842.45 1741.325,1669.831 C1796.336,1497.212 1763.776,1264.088 1700.984,1075.711 C1660.642,954.686 1584.425,953.413 1546.952,840.996 C1491.941,675.963 1345.245,532.934 1293.901,503.595 C1152.971,423.063 1040.85,455.918 916.158,481.59 C578.756,547.604 613.239,543.135 538.415,562.273 z" fill="#C86144"/>
      <path d="M538.415,562.273 C387.865,600.781 300.033,672.296 274.361,723.639 C220.182,831.997 224.851,947.602 241.355,1116.052 C257.858,1284.502 303.701,1504.797 377.049,1600.15 C560.855,1839.098 1337.91,1919.215 1458.935,1893.543 C1570.682,1869.839 1686.314,1842.45 1741.325,1669.831 C1796.336,1497.212 1763.776,1264.088 1700.984,1075.711 C1660.642,954.686 1584.425,953.413 1546.952,840.996 C1491.941,675.963 1345.245,532.934 1293.901,503.595 C1152.971,423.063 1040.85,455.918 916.158,481.59 C578.756,547.604 613.239,543.135 538.415,562.273 z" fill-opacity="0" stroke="#000000" stroke-width="1" stroke-linecap="round"/>
    </g>
    <g>
      <path d="M292.627,682.739 C301.179,625.442 309.781,151.572 314.703,144.189 C352.388,87.661 581.945,101.933 597.093,162.526 C603.44,187.91 564.062,236.071 560.419,265.213 C549.098,355.785 534.747,448.473 534.747,540.269 z" fill="#C5402C"/>
      <path d="M292.627,682.739 C301.179,625.442 309.781,151.572 314.703,144.189 C352.388,87.661 581.945,101.933 597.093,162.526 C603.44,187.91 564.062,236.071 560.419,265.213 C549.098,355.785 534.747,448.473 534.747,540.269 z" fill-opacity="0" stroke="#000000" stroke-width="1" stroke-linecap="round"/>
    </g>
    <g>
      <path d="M362.494,1606.926 C356.99,1663.325 366.505,1717.509 373.381,1772.519 C379.145,1818.631 358.81,1889.974 395.386,1926.55 C469.305,2000.468 772.858,2020.82 718.118,1801.858 z" fill="#D0442F"/>
      <path d="M362.494,1606.926 C356.99,1663.325 366.505,1717.509 373.381,1772.519 C379.145,1818.631 358.81,1889.974 395.386,1926.55 C469.305,2000.468 772.858,2020.82 718.118,1801.858 z" fill-opacity="0" stroke="#000000" stroke-width="1" stroke-linecap="round"/>
    </g>
    <g>
      <path d="M928.994,382.937 C921.384,412.426 832.144,557.277 864.814,606.282 C872.919,618.44 932.295,652.492 989.506,666.794 C1042.249,679.98 1089.626,675.596 1125.2,657.626 C1157.592,641.263 1194.744,445.315 1171.043,419.244 C1149.038,395.039 1112.731,381.837 1054.419,364.233 C996.108,346.63 933.395,365.884 928.994,382.937 z" fill="#B33A28"/>
      <path d="M928.994,382.937 C921.384,412.426 832.144,557.277 864.814,606.282 C872.919,618.44 932.295,652.492 989.506,666.794 C1042.249,679.98 1089.626,675.596 1125.2,657.626 C1157.592,641.263 1194.744,445.315 1171.043,419.244 C1149.038,395.039 1112.731,381.837 1054.419,364.233 C996.108,346.63 933.395,365.884 928.994,382.937 z" fill-opacity="0" stroke="#000000" stroke-width="1" stroke-linecap="round"/>
    </g>
    <g>
      <g>
        <path d="M1045.542,449.211 C977.728,430.224 928.316,394.971 935.175,370.47 C942.035,345.969 1002.57,341.499 1070.384,360.486 C1138.197,379.472 1187.61,414.726 1180.75,439.227 C1173.89,463.728 1113.355,468.198 1045.542,449.211 z" fill="#B33A28"/>
        <path d="M1045.542,449.211 C977.728,430.224 928.316,394.971 935.175,370.47 C942.035,345.969 1002.57,341.499 1070.384,360.486 C1138.197,379.472 1187.61,414.726 1180.75,439.227 C1173.89,463.728 1113.355,468.198 1045.542,449.211 z" fill-opacity="0" stroke="#000000" stroke-width="1"/>
      </g>
      <g>
        <path d="M1049.487,437.799 C989.219,420.926 944.498,392.479 949.598,374.263 C954.698,356.047 1007.689,354.96 1067.956,371.833 C1128.224,388.707 1172.945,417.154 1167.845,435.37 C1162.745,453.586 1109.754,454.673 1049.487,437.799 z" fill="url(#Gradient_1)"/>
        <path d="M1049.487,437.799 C989.219,420.926 944.498,392.479 949.598,374.263 C954.698,356.047 1007.689,354.96 1067.956,371.833 C1128.224,388.707 1172.945,417.154 1167.845,435.37 C1162.745,453.586 1109.754,454.673 1049.487,437.799 z" fill-opacity="0" stroke="#000000" stroke-width="1"/>
      </g>
    </g>
    <g>
      <g>
        <path d="M447.859,198.163 C377.459,196.423 320.899,174.393 321.528,148.957 C322.156,123.522 379.737,104.313 450.136,106.054 C520.536,107.794 577.097,129.824 576.468,155.26 C575.839,180.695 518.259,199.904 447.859,198.163 z" fill="#B33A28"/>
        <path d="M447.859,198.163 C377.459,196.423 320.899,174.393 321.528,148.957 C322.156,123.522 379.737,104.313 450.136,106.054 C520.536,107.794 577.097,129.824 576.468,155.26 C575.839,180.695 518.259,199.904 447.859,198.163 z" fill-opacity="0" stroke="#000000" stroke-width="1"/>
      </g>
      <g>
        <path d="M448.879,186.132 C386.313,184.585 335.973,168.001 336.44,149.091 C336.908,130.18 388.006,116.104 450.572,117.65 C513.138,119.197 563.478,135.781 563.011,154.692 C562.543,173.603 511.445,187.679 448.879,186.132 z" fill="url(#Gradient_2)"/>
        <path d="M448.879,186.132 C386.313,184.585 335.973,168.001 336.44,149.091 C336.908,130.18 388.006,116.104 450.572,117.65 C513.138,119.197 563.478,135.781 563.011,154.692 C562.543,173.603 511.445,187.679 448.879,186.132 z" fill-opacity="0" stroke="#000000" stroke-width="1"/>
      </g>
    </g>
    <path d="M895.998,725.373 C847.432,795.534 804.163,836.944 758.163,909.23 C717.434,973.232 513.365,1294.453 524.875,1339.815 C566.657,1504.485 790.224,1436.737 891.082,1443.041 C1038.527,1452.256 1217.965,1597.88 1387.551,1396.343 C1458.667,1311.828 1249.916,1008.016 1137.236,918.128 C1103.303,891.06 1132.531,806.364 1101.642,777.533 C1059.225,737.944 1010.755,703.253 954.984,703.253 z" fill="#EEB59C"/>
    <path d="M650.221,673.76 C598.177,669.847 518.707,638.564 483.093,686.049 C465.525,709.473 415.196,753.678 404.445,781.902 C368.542,876.147 401.507,1004.238 425.362,1099.656 C429.633,1116.743 445.474,1247.221 464.515,1231.353 C502.006,1200.11 557.458,1080.627 574.031,1035.052 C598.973,966.46 647.615,945.72 664.968,872.839 C681.188,804.713 562.454,757.155 630.559,725.373 z" fill="#EEB59C"/>
    <path d="M410.095,1921.989 C401.758,1885.69 400.824,1847.157 396.887,1809.751 C394.807,1789.993 379.428,1671.737 396.887,1662.037 C405.491,1657.257 526.201,1719.094 535.702,1731.445 C581.383,1790.83 570.888,1921.898 546.38,1950.346 C521.872,1978.794 410.095,1921.989 410.095,1921.989 z" fill="#FFD6D6"/>
    <path d="M342.391,633.532 C336.786,567.065 317.755,161.643 352.832,199.411 C362.899,210.251 437.688,222.147 449.49,217.857 C469.962,210.417 460.192,296.118 460.794,329.816 C462.003,397.426 471.5,479.692 453.836,537.276 C440.505,580.737 375.756,593.91 348.835,631.599 z" fill="#F1C2AF"/>
    <g>
      <path d="M660.657,600.237 C624.061,591.352 508.134,592.626 522.147,535.3 C550.398,419.726 565.461,-54.528 715.784,23.182 C778.189,55.442 875.106,75.305 911.968,141.657 C934.46,182.142 864.833,372.237 886.819,466.921 C895.991,506.422 805.441,523.178 796.041,560.778 C779.615,626.484 807.199,713.152 792.219,778.619 C757.823,928.943 611.692,1140.116 578.2,1197.741 C541.911,1260.177 477.026,1316.865 520.044,1415.995 C543.897,1470.96 596.973,1478.974 653.775,1488.939 C653.775,1488.939 653.775,1488.939 653.775,1488.939 C692.118,1488.939 1041.876,1438.439 1101.728,1430.958 C1138.096,1426.412 1183.204,1363.782 1198.052,1361.754 C1225.313,1358.03 1138.518,1471.729 1067.914,1467.717 C1008.453,1464.338 924.181,1476.934 905.34,1490.809 C893.754,1499.341 1134.828,1544.714 1150.411,1543.339 C1168.391,1541.753 1240.241,1484.217 1240.241,1484.217 C1240.241,1484.217 1218.241,1546.547 1169.66,1568.088 C1139.226,1581.583 1000.685,1551.726 983.584,1544.256 C856.63,1488.8 684.669,1528.961 685.209,1528.961 C768.623,1528.961 1026.973,1626.861 1092.376,1646.985 C1141.834,1662.203 1262.207,1646.038 1304.863,1653.793 C1317.102,1656.019 1395.02,1555.245 1443.733,1562.13 C1468.94,1565.693 1332.276,1659.418 1358.028,1664.793 C1393.124,1672.118 1463.344,1651.461 1503.064,1679.596 C1549.96,1712.815 1673.064,1647.355 1686.742,1661.033 C1692.138,1666.429 1592.526,1709.806 1560.522,1709.806 C1525.349,1709.806 1438.673,1676.672 1409.791,1690.002 C1366.883,1709.806 1183.145,1680.1 1181.626,1710.861 C1180.484,1733.992 1432.663,1739.25 1451.6,1738.411 C1470.537,1737.573 1492.994,1721.791 1502.087,1720.631 C1548.006,1714.769 1588.064,1758.734 1588.064,1758.734 C1602.157,1767.981 1522.408,1739.856 1508.811,1742.812 C1495.214,1745.769 1459.439,1752.844 1460.075,1765.573 C1462.029,1804.654 1558.263,1846.406 1545.075,1847.643 C1513.811,1850.574 1453.932,1781.265 1399.5,1776.321 C1397.318,1776.122 1200.189,1766.55 1166.971,1756.78 C1151.737,1752.3 1135.189,1712.329 1122.028,1704.998 C1108.868,1697.668 1019.486,1677.719 1013.58,1678.619 C993.081,1681.744 1103.465,1776.321 1140.592,1777.297 C1164.995,1777.94 1244.268,1787.519 1250.017,1793.907 C1258.81,1803.677 1333.063,1850.574 1335.017,1868.16 C1292.029,1838.849 1222.661,1817.355 1097.603,1809.539 C1033.453,1805.53 1055.155,1755.609 993.174,1721.175 C955.471,1700.229 961.998,1686.281 880.12,1638.519 C855.401,1624.1 767.705,1573.904 754.001,1599.027 C738.714,1627.054 769.101,1696.288 789.671,1690.75 C889.037,1663.998 1010.06,1800.307 994.773,1823.238 C983.6,1839.998 928.529,1689.476 750.18,1723.872 C720.49,1729.598 701.771,1564.631 610.048,1545.522 C593.77,1542.131 485.018,1447.59 487.751,1463.991 C492.847,1494.565 587.11,1738.206 574.378,1712.407 C525.969,1614.314 511.681,1582.947 443.062,1497.463 C404.946,1449.978 440.616,1283.094 491.573,1201.563 C508.93,1173.79 571.922,1053.079 589.759,1024.367 C618.965,977.352 656.52,927.11 681.388,852.507 C687.757,833.398 713.138,735.992 714.51,697.088 C715.882,658.185 697.253,609.121 660.657,600.237 z" fill="#C40000"/>
      <path d="M660.657,600.237 C624.061,591.352 508.134,592.626 522.147,535.3 C550.398,419.726 565.461,-54.528 715.784,23.182 C778.189,55.442 875.106,75.305 911.968,141.657 C934.46,182.142 864.833,372.237 886.819,466.921 C895.991,506.422 805.441,523.178 796.041,560.778 C779.615,626.484 807.199,713.152 792.219,778.619 C757.823,928.943 611.692,1140.116 578.2,1197.741 C541.911,1260.177 477.026,1316.865 520.044,1415.995 C543.897,1470.96 596.973,1478.974 653.775,1488.939 C653.775,1488.939 653.775,1488.939 653.775,1488.939 C692.118,1488.939 1041.876,1438.439 1101.728,1430.958 C1138.096,1426.412 1183.204,1363.782 1198.052,1361.754 C1225.313,1358.03 1138.518,1471.729 1067.914,1467.717 C1008.453,1464.338 924.181,1476.934 905.34,1490.809 C893.754,1499.341 1134.828,1544.714 1150.411,1543.339 C1168.391,1541.753 1240.241,1484.217 1240.241,1484.217 C1240.241,1484.217 1218.241,1546.547 1169.66,1568.088 C1139.226,1581.583 1000.685,1551.726 983.584,1544.256 C856.63,1488.8 684.669,1528.961 685.209,1528.961 C768.623,1528.961 1026.973,1626.861 1092.376,1646.985 C1141.834,1662.203 1262.207,1646.038 1304.863,1653.793 C1317.102,1656.019 1395.02,1555.245 1443.733,1562.13 C1468.94,1565.693 1332.276,1659.418 1358.028,1664.793 C1393.124,1672.118 1463.344,1651.461 1503.064,1679.596 C1549.96,1712.815 1673.064,1647.355 1686.742,1661.033 C1692.138,1666.429 1592.526,1709.806 1560.522,1709.806 C1525.349,1709.806 1438.673,1676.672 1409.791,1690.002 C1366.883,1709.806 1183.145,1680.1 1181.626,1710.861 C1180.484,1733.992 1432.663,1739.25 1451.6,1738.411 C1470.537,1737.573 1492.994,1721.791 1502.087,1720.631 C1548.006,1714.769 1588.064,1758.734 1588.064,1758.734 C1602.157,1767.981 1522.408,1739.856 1508.811,1742.812 C1495.214,1745.769 1459.439,1752.844 1460.075,1765.573 C1462.029,1804.654 1558.263,1846.406 1545.075,1847.643 C1513.811,1850.574 1453.932,1781.265 1399.5,1776.321 C1397.318,1776.122 1200.189,1766.55 1166.971,1756.78 C1151.737,1752.3 1135.189,1712.329 1122.028,1704.998 C1108.868,1697.668 1019.486,1677.719 1013.58,1678.619 C993.081,1681.744 1103.465,1776.321 1140.592,1777.297 C1164.995,1777.94 1244.268,1787.519 1250.017,1793.907 C1258.81,1803.677 1333.063,1850.574 1335.017,1868.16 C1292.029,1838.849 1222.661,1817.355 1097.603,1809.539 C1033.453,1805.53 1055.155,1755.609 993.174,1721.175 C955.471,1700.229 961.998,1686.281 880.12,1638.519 C855.401,1624.1 767.705,1573.904 754.001,1599.027 C738.714,1627.054 769.101,1696.288 789.671,1690.75 C889.037,1663.998 1010.06,1800.307 994.773,1823.238 C983.6,1839.998 928.529,1689.476 750.18,1723.872 C720.49,1729.598 701.771,1564.631 610.048,1545.522 C593.77,1542.131 485.018,1447.59 487.751,1463.991 C492.847,1494.565 587.11,1738.206 574.378,1712.407 C525.969,1614.314 511.681,1582.947 443.062,1497.463 C404.946,1449.978 440.616,1283.094 491.573,1201.563 C508.93,1173.79 571.922,1053.079 589.759,1024.367 C618.965,977.352 656.52,927.11 681.388,852.507 C687.757,833.398 713.138,735.992 714.51,697.088 C715.882,658.185 697.253,609.121 660.657,600.237 z" fill-opacity="0" stroke="#000000" stroke-width="1" stroke-linecap="round"/>
    </g>
    <path d="M575.427,562.737 C570.398,488.597 569.311,416.128 582.205,343.064 C589.903,299.44 605.401,259.787 613.586,216.134 C622.583,168.148 687.319,19.513 708.562,36.958 C716.37,43.369 734.028,29.843 738.817,38.738 C743.209,46.894 651.892,281.57 645.537,321.818 C638.097,368.936 637.929,548.163 619.578,577.982 C609.668,594.087 592.478,581.491 578.645,579.762 z" fill="#E77F64"/>
    <path d="M691.288,513.252 C725.104,640.886 792.978,696.408 685.026,894.32 C659.754,940.652 623.73,1028.699 590.725,1074.671 C568.208,1106.034 535.55,1182.198 522.356,1218.481 C515.897,1236.244 493.864,1288.431 502.317,1271.525 C596.014,1084.131 765.167,899.844 780.506,677.427 C784.461,620.081 756.931,506.506 697.992,513.579 z" fill="#E98064"/>
    <g>
      <path d="M1163.178,593.282 C1192.272,618.219 1292.819,719.329 1313.771,868.612 C1331.375,994.038 1081.188,1120.437 1108.03,1263.592 C1114.631,1298.799 1131.322,1099.849 1243.357,1091.958 C1278.083,1089.512 1248.686,1288.338 1264.725,1284.767 C1264.725,1284.767 1273.063,1068.853 1287.366,1045.748 C1298.246,1028.172 1342.522,924.308 1364.381,946.728 C1407.29,990.737 1424.038,1028.373 1427.094,1095.258 C1436.996,1312.002 1265.361,1330.706 1273.303,1368.4 C1277.239,1387.082 1365.677,1309.531 1380.885,1320.804 C1396.092,1332.077 1353.759,1459.029 1380.525,1471.333 C1407.29,1483.637 1420.493,1130.465 1479.905,1116.162 C1479.905,1116.162 1589.825,1203.898 1600.929,1251.49 C1608.631,1284.497 1654.84,1431.926 1657.041,1475.935 C1658.355,1502.228 1668.043,1626.666 1685.646,1625.566 C1701.258,1624.59 1649.87,1382.444 1668.043,1356.011 C1680.145,1338.407 1721.609,1426.21 1725.255,1451.73 C1728.555,1474.835 1725.938,1606.567 1734.056,1647.57 C1742.174,1688.573 1754.208,1453.417 1742.858,1414.323 C1713.152,1312.002 1475.515,1069.674 1471.103,1049.049 C1466.692,1028.424 1586.626,1109.561 1628.435,1146.969 C1645.09,1161.87 1621.833,1187.677 1638.337,1211.882 C1662.092,1246.723 1710.952,1314.203 1724.154,1315.303 C1774.977,1319.538 1634.4,1176.591 1654.84,1135.966 C1662.53,1120.683 1574.156,1105.992 1569.023,1072.154 C1563.889,1038.315 1719.883,1133.958 1702.15,1110.661 C1684.417,1087.365 1623.535,1060.734 1620.733,1053.45 C1609.124,1023.265 1530.142,1032.023 1479.168,1010.28 C1428.194,988.537 1350.366,856.708 1361.225,828.003 C1372.083,799.298 1755.531,1043.422 1592.823,892.336 C1519.344,824.105 1342.784,774.726 1331.375,754.189 C1317.265,728.792 1180.113,536.479 1177.344,560.55 C1175.556,576.091 1155.477,586.68 1163.178,593.282 z" fill="#C40000"/>
      <path d="M1163.178,593.282 C1192.272,618.219 1292.819,719.329 1313.771,868.612 C1331.375,994.038 1081.188,1120.437 1108.03,1263.592 C1114.631,1298.799 1131.322,1099.849 1243.357,1091.958 C1278.083,1089.512 1248.686,1288.338 1264.725,1284.767 C1264.725,1284.767 1273.063,1068.853 1287.366,1045.748 C1298.246,1028.172 1342.522,924.308 1364.381,946.728 C1407.29,990.737 1424.038,1028.373 1427.094,1095.258 C1436.996,1312.002 1265.361,1330.706 1273.303,1368.4 C1277.239,1387.082 1365.677,1309.531 1380.885,1320.804 C1396.092,1332.077 1353.759,1459.029 1380.525,1471.333 C1407.29,1483.637 1420.493,1130.465 1479.905,1116.162 C1479.905,1116.162 1589.825,1203.898 1600.929,1251.49 C1608.631,1284.497 1654.84,1431.926 1657.041,1475.935 C1658.355,1502.228 1668.043,1626.666 1685.646,1625.566 C1701.258,1624.59 1649.87,1382.444 1668.043,1356.011 C1680.145,1338.407 1721.609,1426.21 1725.255,1451.73 C1728.555,1474.835 1725.938,1606.567 1734.056,1647.57 C1742.174,1688.573 1754.208,1453.417 1742.858,1414.323 C1713.152,1312.002 1475.515,1069.674 1471.103,1049.049 C1466.692,1028.424 1586.626,1109.561 1628.435,1146.969 C1645.09,1161.87 1621.833,1187.677 1638.337,1211.882 C1662.092,1246.723 1710.952,1314.203 1724.154,1315.303 C1774.977,1319.538 1634.4,1176.591 1654.84,1135.966 C1662.53,1120.683 1574.156,1105.992 1569.023,1072.154 C1563.889,1038.315 1719.883,1133.958 1702.15,1110.661 C1684.417,1087.365 1623.535,1060.734 1620.733,1053.45 C1609.124,1023.265 1530.142,1032.023 1479.168,1010.28 C1428.194,988.537 1350.366,856.708 1361.225,828.003 C1372.083,799.298 1755.531,1043.422 1592.823,892.336 C1519.344,824.105 1342.784,774.726 1331.375,754.189 C1317.265,728.792 1180.113,536.479 1177.344,560.55 C1175.556,576.091 1155.477,586.68 1163.178,593.282 z" fill-opacity="0" stroke="#000000" stroke-width="1" stroke-linecap="round"/>
    </g>
  </g>
  <defs>
    <radialGradient id="Gradient_1" gradientUnits="userSpaceOnUse" cx="1207.755" cy="104.557" r="190.91" fx="1093.209" fy="104.557" gradientTransform="matrix(0.963, 0.27, -0.27, 0.963, 0, 0)">
      <stop offset="0" stop-color="#FFDDBF"/>
      <stop offset="1" stop-color="#5166E3"/>
    </radialGradient>
    <radialGradient id="Gradient_2" gradientUnits="userSpaceOnUse" cx="532.437" cy="140.911" r="190.91" fx="417.891" fy="140.912" gradientTransform="matrix(1, 0.025, -0.025, 1, 0, 0)">
      <stop offset="0" stop-color="#FFDDBF"/>
      <stop offset="1" stop-color="#5166E3"/>
    </radialGradient>
  </defs>
</svg>
