<?xml version="1.0" encoding="utf-8"?>
<!-- Generator: Adobe Illustrator 16.0.0, SVG Export Plug-In . SVG Version: 6.00 Build 0)  -->
<!DOCTYPE svg PUBLIC "-//W3C//DTD SVG 1.1//EN" "http://www.w3.org/Graphics/SVG/1.1/DTD/svg11.dtd">
<svg version="1.1" id="Layer_1" xmlns="http://www.w3.org/2000/svg" xmlns:xlink="http://www.w3.org/1999/xlink" x="0px" y="0px"
	 width="1063px" height="1349px" viewBox="0 0 1063 1349" enable-background="new 0 0 1063 1349" xml:space="preserve">
<g>
	<ellipse fill="#5C5C5C" cx="531.5" cy="1211.35" rx="531.246" ry="137.332"/>
	<path fill="#1C1334" d="M1008.509,1209.15c0.791-5.306,0.908-10.749-1.201-15.524c-2.079-4.709-7.891-7.774-9.614-12.924
		c-4.088-12.218,2.421-25.351-2.922-38.063c-7.8-18.558-17.153-34.666-22.746-55.507c-8.156-30.399-13.438-51.714-15.149-83.371
		c-0.866-16.013-4.278-32.468-13.812-45.363c-2.457-3.323-5.292-6.367-8.433-9.055c-26.222-22.425-24.08-55.974-22.658-87.063
		c0.404-8.838,0.117-17.708-0.856-26.503c-3.369-26.951-17.273-30.819-39.317-43.535c-8.396-4.843-17.888-11.505-17.748-21.197
		c0.212-14.669,14.733-23.019,12.33-39.053c-1.881-12.545-13.009-21.011-13.763-35.085c-1.168-21.799,4.226-43.878-4.6-64.803
		c-4.979-11.801-16.31-17.27-23.342-27.266c-7.366-10.469-8.913-23.364-18.097-32.805c-3.3-3.393-7.11-6.241-10.903-9.072
		c-10.216-7.627-20.432-15.255-30.647-22.883c-2.861-6.15-1.282-13.529,1.833-19.554c9.653-18.67,25.61-38.581,20.828-61.498
		c-2.307-11.055-12.422-17.521-16.095-27.615c-4.643-12.764,0.813-24.792-2.017-37.581c-2.363-10.678-10.791-22.158-17.412-30.589
		c-10.541-13.419-13.658-11.618-18.641-28.154c-5.615-18.637,0.559-38.341-8.236-57.009c-4.385-9.307-13.172-14.995-17.93-24.591
		c-6.818-13.754-9.91-28.55-17.701-42.461c-8.407-15.008-5.452-31.385-13.505-47.222c-2.322-4.561-6.228-8.063-10.046-11.454
		c-28.441-25.262-14.615-52.071-28.123-80.749c-16.011-33.994-57.567-28.333-88.025-38.696c-13.16-4.479-17.071-15.847-27.53-22.727
		c-11.859-7.801-26.417-3.271-40.8-9.064c-19.684-7.918-44.268,45.613-56.245,56.588c-26.137,23.952-49.148,50.872-60.037,85.155
		c-5.473,17.23-4.326,35.028-8.389,52.228c-5.933,25.1-27.533,29.812-38.955,50.739c-11.054,20.254-10.406,50.704-16.684,73.522
		c-6.25,22.713-11.768,75.642,9.713,86.318c5.292,2.635,8.101,8.777,8.396,14.681c0.296,5.904-1.486,11.692-3.249,17.335
		c-3.547-0.496-6.835,1.748-9.712,3.879c-20.45,15.148-33.071,26.287-46.626,47.621c-4.476,7.044-8.959,14.102-12.741,21.541
		c-0.004,0.01-0.009,0.019-0.014,0.028c-19.272,37.932-17.079,71.955-12.445,112.407c3.039,26.538-16.225,45.185-35.32,60.284
		c-11.335,8.963-18.435,12.103-22.73,26.44c-3.772,12.592-5.883,26.404-6.166,38.977c-0.323,14.368,5.95,28.916,4.688,42.832
		c-2.504,27.622-28.726,41.497-10.136,70.407c3.738,5.809,11.262,8.142,13.239,15.197c2.307,8.228-2.292,19.366-9.932,23.077
		c-10.245,4.979-17.577,16.87-24.996,24.143c-9.812,9.621-16.11,16.114-19.863,30.124c-8.406,31.38,2.39,71.444-14.162,100.262
		c-4.344,7.564-10.586,14.12-13.477,22.35c-3.959,11.267-2.324,23.637-6.085,35.219c-4.486,13.817-15.217,25.218-18.088,39.557
		c-1.631,8.142-0.069,16.88,4.28,23.953c2.051,3.334,4.73,6.396,5.759,10.172c2.056,7.556-3.022,15.061-4.236,22.796
		c-5.036,32.082,40.3,37.353,61.845,36.708c18.184-0.545,32.956,18.182,50.785,22.94c27.072,7.226,52.074-4.425,78.963-4.215
		c10.742,0.083,22.531,0.789,30.441,8.633c3.576,3.544,5.991,8.246,9.413,11.961c11.813,12.829,41.482,15.946,57.312,13.07
		c8.01-1.455,15.67-4.522,23.334-7.401c18.148-6.816,37.305-11.605,56.499-12.602c8.746-0.456,15.891,5.923,22.651,11.076
		c12.135,9.245,37.186,4.532,51.35,5.54c12.131,0.865,22.993,5.646,33.877,11.152c16.062,8.127,40.156,15.296,57.724,9.319
		c9.507-3.234,16.446-8.516,26.587-9.403c25.252-2.208,51.195,1.431,76.272-2.474c4.153-0.646,8.289-1.598,12.182-3.274
		c9.741-4.195,14.953-12.983,23.301-18.897c6.905-4.893,16.155-9.836,23.73-13.783c10.769-5.611,21.642-6.814,33.407-4.104
		c4.319,0.995,8.43,2.822,12.641,4.265c17.112,5.862,35.927,3.407,53.438,4.654c12.543,0.895,32.4,4.292,42.875-4.966
		c6.973-6.164,11.729-15.312,19.987-19.917c8.337-4.647,18.126-3.798,27.208-4.72c16.341-1.66,40.746-10.647,44.449-28.815
		C1007.996,1212.202,1008.28,1210.681,1008.509,1209.15z"/>
	<g>
		<path fill="#FFFFFF" d="M249.771,1009.586L249.771,1009.586l-0.103,0.049c-11.75,5.654-25.352,4.269-38.3-3.903
			c-12.452-7.857-23.63-21.49-32.325-39.424c-13.97-28.813,3.538-49.93,22.776-59.257c0.582-0.281,1.042-0.491,1.354-0.626
			c0.274-0.148,0.661-0.35,1.154-0.588c3.427-1.662,12.546-5.398,23.169-4.215c9.406,1.046,22.556,6.291,31.783,25.325
			c9.248,19.076,13.245,36.767,11.56,51.161C269.137,992.644,261.654,1003.825,249.771,1009.586z M208.124,920.054
			c-2.264,1.099-10.041,5.222-15.087,12.205c-5.815,8.05-6.14,17.125-0.991,27.745c14.194,29.276,35.312,44.331,51.356,36.61
			l0.065-0.031c16.737-8.115,17.813-32.383,2.81-63.333c-5.1-10.52-11.957-16.329-20.38-17.267
			c-7.072-0.788-13.473,1.988-15.266,2.856c-0.384,0.187-0.626,0.318-0.7,0.36l-0.446,0.257l-0.395,0.152
			C209.033,919.633,208.68,919.785,208.124,920.054z"/>
	</g>
	<g>
		<path fill="#8F8F8E" d="M267.463,932.159c0,0,3.885,11.361,18.736,12.482C286.199,944.642,281.639,932.83,267.463,932.159z"/>
		<path fill="#8F8F8E" d="M300.77,924.301c0,0-12.08,4.13-13.271,19.92C287.499,944.221,300.058,939.372,300.77,924.301z"/>
		<path fill="#8F8F8E" d="M318.665,1088.403c5.662-2.011,10.941-4.951,16.189-7.876c5.819-3.244,11.639-6.487,17.458-9.731
			c4.134-2.304,8.342-4.666,11.563-8.133c3.65-3.929,5.802-9.062,6.929-14.304c0.566-2.631,0.891-5.354,0.498-8.018
			c-1.028-6.973-6.631-12.236-10.057-18.395c-4.391-7.896-5.152-17.214-7.304-25.988c-2.151-8.774-6.521-17.967-14.846-21.474
			c-2.549-1.074-5.449-1.612-7.436-3.535c-1.626-1.575-2.364-3.825-3.46-5.807c-2.424-4.381-6.614-7.455-10.675-10.385
			c-5.506-3.972-11.238-8.044-17.894-9.383c-8.827-1.778-18.307,1.772-24.518,8.291c-4.405,4.623-7.233,10.483-10.761,15.806
			c-5.715,8.622-13.521,16.291-16.064,26.317c-2.253,8.885,0.279,18.837,6.504,25.566c1.433,1.549,3.084,2.992,3.899,4.938
			c1.986,4.739-1.663,9.73-3.753,14.422c-3.851,8.645-2.329,19.004,2.215,27.306c4.544,8.301,11.783,14.808,19.461,20.34
			c1.525,1.099,3.097,2.178,4.862,2.823c2.104,0.769,4.382,0.886,6.621,0.954C298.418,1092.452,308.935,1091.859,318.665,1088.403z"
			/>
		<circle fill="#8F8F8E" cx="287.496" cy="946.765" r="4.75"/>
		<circle fill="none" stroke="#1C1334" stroke-miterlimit="10" cx="287.496" cy="946.765" r="4.75"/>
	</g>
	<g>
		<path fill="#E62176" d="M582.224,739.903c-2.338-3.916-4.24-9.375-8.154-11.757c-0.957-0.579-2.068-1.01-2.819-1.78
			c-1.363-1.401-1.139-3.435-1.165-5.26c-0.063-4.271-1.892-8.354-3.696-12.332c-1.949-4.298-8.798-7.446-14.212-6.405
			c-0.969,0.187-1.903,0.502-2.884,0.64c-2.114,0.294-4.243-0.254-6.36-0.528c-7.39-0.952-15.151,1.654-20.285,6.315
			c-5.134,4.662-7.695,11.183-7.529,17.573c0.077,2.967,0.678,6.073-0.695,8.802c-1.493,2.965-5.104,4.975-6.107,8.085
			c-1.349,4.179,2.493,8.86,0.358,12.795c-0.755,1.391-2.157,2.437-3.172,3.7c-3.023,3.761-2.17,9.064,0.769,12.857
			c2.939,3.794,7.571,6.36,12.224,8.57c4.837,2.296,10.048,4.372,15.586,4.447c9.599,0.131,17.955-5.669,27.408-7.131
			c7.189-1.111,15.241,0.211,21.346-3.232c10.65-6.007,6.45-22.345,2.367-30.719c-0.556-1.141-1.316-2.199-2.073-3.251
			C582.816,740.86,582.517,740.394,582.224,739.903z"/>
		<path fill="#E62176" d="M533.441,695.65c0,0,3.086,6.325,13.039,6.385C546.48,702.035,542.924,695.48,533.441,695.65z"/>
		<path fill="#E62176" d="M559.152,696.712c0,0-7.756-1.739-13.891,4.979C545.262,701.691,553.52,703.25,559.152,696.712z"/>
		<path fill="#E62176" d="M548.053,702.841c-0.289,1.02-1.49,1.65-2.683,1.405c-1.193-0.244-1.926-1.27-1.637-2.29
			c0.289-1.02,1.49-1.651,2.684-1.405C547.609,700.794,548.343,701.819,548.053,702.841z"/>
		<path fill="#E62176" d="M548.053,702.841c-0.289,1.02-1.49,1.65-2.683,1.405c-1.193-0.244-1.926-1.27-1.637-2.29
			c0.289-1.02,1.49-1.651,2.684-1.405C547.609,700.794,548.343,701.819,548.053,702.841z"/>
	</g>
	<g>
		<path fill="#5C5C5C" d="M613.15,870.708c-3.498-6.839-6.351-16.372-12.196-20.54c-1.431-1.013-3.09-1.766-4.212-3.114
			c-2.038-2.448-1.707-5.997-1.752-9.182c-0.104-7.454-2.844-14.585-5.545-21.534c-2.919-7.506-13.146-13.015-21.224-11.209
			c-1.445,0.322-2.839,0.87-4.301,1.107c-3.155,0.51-6.334-0.454-9.493-0.936c-11.03-1.681-22.605,2.852-30.255,10.974
			c-7.65,8.123-11.457,19.497-11.194,30.652c0.122,5.177,1.027,10.601-1.016,15.359c-2.22,5.172-7.604,8.67-9.095,14.097
			c-2.002,7.292,3.743,15.471,0.566,22.332c-1.123,2.425-3.212,4.249-4.725,6.451c-4.502,6.556-3.216,15.814,1.179,22.442
			c4.395,6.628,11.312,11.118,18.262,14.985c7.223,4.02,15.005,7.654,23.269,7.799c14.324,0.252,26.78-9.852,40.882-12.379
			c10.727-1.922,22.745,0.405,31.847-5.59c15.878-10.458,9.57-38.983,3.458-53.607c-0.832-1.993-1.97-3.841-3.102-5.679
			C614.037,872.38,613.589,871.566,613.15,870.708z"/>
		<path fill="#5E5E5E" d="M540.248,793.355c0,0,4.62,11.047,19.472,11.176C559.72,804.532,554.398,793.082,540.248,793.355z"/>
		<path fill="#5E5E5E" d="M578.617,795.272c0,0-11.578-3.054-20.716,8.655C557.901,803.928,570.227,806.67,578.617,795.272z"/>
		<circle fill="#5E5E5E" cx="558.845" cy="805.164" r="3.316"/>
		<circle fill="none" stroke="#1C1334" stroke-miterlimit="10" cx="558.845" cy="805.164" r="3.316"/>
	</g>
	<path fill="#FFFFFF" d="M765.328,775.452c7.474-0.136,16.124-1.381,25.473-4.727c18.064-6.464,32.953-8.028,44.796-7.518
		c1.429-6.407,1.688-13.073,1.336-18.177c-0.125-1.812-0.564-3.624-1.003-5.427c-0.181-0.741-0.328-1.522-0.453-2.33
		c-0.998-6.452-0.589-14.718-4.501-19.98c-0.96-1.283-2.202-2.451-2.784-3.877c-1.056-2.591,0.335-5.169,1.28-7.604
		c2.211-5.699,1.979-12.101,1.724-18.348c-0.276-6.751-7.672-14.606-15.415-16.133c-1.386-0.274-2.794-0.358-4.168-0.703
		c-2.965-0.744-5.495-2.617-8.156-4.117c-9.292-5.236-20.991-5.946-30.307-2.521c-9.315,3.425-16.219,10.7-19.433,19.268
		c-1.492,3.978-2.364,8.421-5.652,11.304c-3.574,3.132-9.445,3.858-12.448,7.446c-4.034,4.819-1.453,13.095-6.399,17.167
		c-1.749,1.439-4.171,2.075-6.197,3.205c-6.031,3.364-7.75,10.86-5.889,17.472c1.86,6.612,6.627,12.506,11.613,17.938
		c5.183,5.646,10.981,11.2,18.289,14.276C752.882,774.529,759.061,775.166,765.328,775.452z"/>
	<g>
		<path fill="#FFFFFF" d="M810.057,669.739c-0.932,1.199-2.864,1.389-4.315,0.423c-1.452-0.965-1.873-2.718-0.94-3.917
			c0.932-1.199,2.864-1.389,4.315-0.424C810.568,666.786,810.988,668.541,810.057,669.739z"/>
		<path fill="#FEEE5F" d="M794.535,652.347c0,0,0.695,10.051,13.867,15.478C808.402,667.825,807.207,657.218,794.535,652.347z"/>
		<path fill="#FEEE5F" d="M828.075,667.574c0,0-9.356-6.476-21.104-0.859C806.971,666.714,817.088,673.221,828.075,667.574z"/>
		<path fill="#FEEE5F" d="M810.057,669.739c-0.932,1.199-2.864,1.389-4.315,0.423c-1.452-0.965-1.873-2.718-0.94-3.917
			c0.932-1.199,2.864-1.389,4.315-0.424C810.568,666.786,810.988,668.541,810.057,669.739z"/>
	</g>
	<g>
		<path fill="#FFFFFF" d="M555.527,406.5c-0.508,0-1.01-0.155-1.436-0.453l-111.178-77.941c-0.893-0.626-1.277-1.76-0.949-2.8
			c0.329-1.04,1.293-1.747,2.384-1.747h134.269c0.656,0,1.287,0.258,1.756,0.718l56.99,56.139c0.637,0.627,0.891,1.549,0.664,2.415
			c-0.227,0.865-0.898,1.543-1.763,1.779l-80.081,21.801C555.969,406.471,555.748,406.5,555.527,406.5z M452.271,328.56
			l103.731,72.721l74.755-20.352l-53.163-52.369H452.271z"/>
	</g>
	<line fill="none" stroke="#FFFFFF" stroke-width="5" stroke-miterlimit="10" x1="555.527" y1="404" x2="578.617" y2="326.06"/>
	<g>
		<polygon fill="#FEEE5F" points="572.946,399.954 570.783,402.041 572.199,404.693 569.496,406.007 570.019,408.967 
			567.041,409.38 566.626,412.357 563.667,411.835 562.354,414.538 559.702,413.123 557.614,415.285 555.526,413.123 
			552.875,414.538 551.561,411.835 548.602,412.357 548.187,409.38 545.209,408.965 545.731,406.006 543.028,404.692 
			544.443,402.041 542.281,399.954 544.444,397.865 543.027,395.214 545.731,393.899 545.209,390.939 548.187,390.525 
			548.602,387.548 551.56,388.07 552.875,385.367 555.526,386.782 557.614,384.62 559.702,386.782 562.354,385.367 563.668,388.07 
			566.628,387.549 567.042,390.526 570.02,390.941 569.496,393.9 572.199,395.214 570.783,397.866 		"/>
	</g>
	<circle fill="#1C1334" cx="557.614" cy="399.954" r="4.733"/>
	
		<circle fill="none" stroke="#FFFFFF" stroke-width="2" stroke-linecap="round" stroke-linejoin="round" stroke-miterlimit="10" cx="557.614" cy="399.954" r="4.733"/>
	<circle fill="none" stroke="#E62176" stroke-width="4" stroke-miterlimit="10" cx="434.693" cy="427.182" r="46.502"/>
	<circle fill="none" stroke="#FFFFFF" stroke-width="5" stroke-miterlimit="10" cx="434.693" cy="427.182" r="49.752"/>
	<g>
		<g>
			<line fill="none" stroke="#FFFFFF" stroke-miterlimit="10" x1="434.693" y1="380.68" x2="434.693" y2="473.062"/>
			<line fill="none" stroke="#FFFFFF" stroke-miterlimit="10" x1="480.885" y1="426.872" x2="388.503" y2="426.872"/>
			<line fill="none" stroke="#FFFFFF" stroke-miterlimit="10" x1="467.355" y1="394.21" x2="402.031" y2="459.533"/>
			<line fill="none" stroke="#FFFFFF" stroke-miterlimit="10" x1="467.355" y1="459.533" x2="402.031" y2="394.21"/>
		</g>
		<g>
			<line fill="none" stroke="#FFFFFF" stroke-miterlimit="10" x1="452.396" y1="384.208" x2="416.991" y2="469.536"/>
			<line fill="none" stroke="#FFFFFF" stroke-miterlimit="10" x1="477.357" y1="444.574" x2="392.029" y2="409.17"/>
			<line fill="none" stroke="#FFFFFF" stroke-miterlimit="10" x1="477.379" y1="409.22" x2="392.008" y2="444.522"/>
			<line fill="none" stroke="#FFFFFF" stroke-miterlimit="10" x1="452.344" y1="469.558" x2="417.043" y2="384.186"/>
		</g>
	</g>
	<circle fill="#FEEE5F" cx="434.693" cy="427.182" r="6"/>
	<path fill="#FFFFFF" d="M843.768,976.222l-7.666,13.058l-9.901,0.095c-1.86,0.018-3.595,0.952-4.631,2.498l-18.75,27.946
		c3.938-0.68,8.484-0.777,13.269,0.474l13.193-19.665l10.121-0.096c1.982-0.019,3.809-1.076,4.812-2.785l10.394-17.544
		L843.768,976.222z"/>
	<g>
		<path fill="#FFFFFF" d="M507.541,729.302l-19.72-26.428c-1.327-1.779-3.667-2.469-5.747-1.698l-11.536,4.282l-13.573-15.002
			l11.024-14.344c1.049-1.364,1.322-3.173,0.723-4.786l-6.637-17.885l-9.375,3.479l5.675,15.292l-11.88,15.459
			c-1.473,1.915-1.364,4.609,0.257,6.401l18.643,20.607c1.373,1.517,3.53,2.044,5.448,1.333l11.202-4.157l13.138,17.605
			C498.776,728.658,503.079,728.305,507.541,729.302z"/>
		
			<ellipse transform="matrix(0.9364 -0.3509 0.3509 0.9364 -200.7507 202.125)" fill="#E62176" cx="457.384" cy="655.029" rx="5.031" ry="1.376"/>
	</g>
	
		<ellipse transform="matrix(0.9415 0.3369 -0.3369 0.9415 379.219 -228.8955)" fill="#E62176" cx="849.161" cy="978.253" rx="5.785" ry="2.459"/>
	<path fill="#FEEE5F" d="M779.512,619.653l19.72-26.428c1.327-1.779,3.667-2.469,5.747-1.697l11.535,4.281l13.572-15.002
		l-11.023-14.344c-1.049-1.365-1.322-3.173-0.723-4.787l6.637-17.885l9.376,3.479l-5.676,15.291l11.881,15.458
		c1.472,1.916,1.364,4.609-0.257,6.401l-18.643,20.607c-1.373,1.517-3.53,2.044-5.448,1.333l-11.202-4.158l-13.138,17.606
		C788.276,619.01,783.973,618.658,779.512,619.653z"/>
	
		<ellipse transform="matrix(-0.9364 -0.3509 0.3509 -0.9364 1415.2349 1347.1935)" fill="#1C1334" cx="829.669" cy="545.381" rx="5.031" ry="1.377"/>
	<g>
		<path fill="#FFFFFF" d="M400.731,311.32l-25.604-15.49c-1.724-1.043-3.508-0.781-4.383,0.641l-4.855,7.887l-15.988-7.925
			l-0.618-16.338c-0.059-1.555-0.819-3.207-2.012-4.374l-13.229-12.931l-3.945,6.41l11.31,11.056l0.666,17.608
			c0.083,2.182,1.53,4.455,3.439,5.401l21.962,10.886c1.617,0.801,3.206,0.466,4.013-0.844l4.714-7.659l17.058,10.319
			C395.044,313.967,397.494,312.093,400.731,311.32z"/>
		<path fill="#E62176" d="M333.963,262.633c0.528,0.513,0.073,2.378-1.018,4.165c-1.09,1.786-2.402,2.818-2.931,2.304
			c-0.528-0.514-0.072-2.379,1.018-4.166C332.123,263.15,333.436,262.118,333.963,262.633z"/>
	</g>
	<path fill="none" stroke="#E62176" stroke-width="8" stroke-miterlimit="10" d="M646.166,213.381
		c8.287,7.891,20.578,6.995,25.231,19.152c5.575,14.565-14.164,31.131-27.289,21.513c-6.464-4.738-7.061-14.004-15.418-17.081
		c-6.92-2.549-15.502,0.642-20.693-6.027c-5.145-6.608-4.474-16.975-2.919-24.694c1.162-5.767,4.034-11.144,8.861-14.646
		c7.674-5.566,18.76-7.548,23.1,3.271c1.23,3.065,1.308,6.491,2.482,9.577c1.17,3.075,3.363,5.644,5.675,7.984
		C645.519,212.755,645.842,213.072,646.166,213.381z"/>
	<g>
		
			<rect x="363.19" y="735.892" transform="matrix(0.9275 -0.3738 0.3738 0.9275 -268.2709 195.0134)" fill="#8F8F8E" width="11.02" height="106.684"/>
		
			<ellipse transform="matrix(0.9276 -0.3737 0.3737 0.9276 -251.0341 183.8246)" fill="#FFFFFF" cx="348.625" cy="739.408" rx="5.51" ry="2.379"/>
	</g>
	<g>
		<path fill="#8F8F8E" d="M766.963,888.959l33.552-64.113l-9.765-5.109l-31.465,60.125
			C762.023,882.294,764.734,885.296,766.963,888.959z"/>
		
			<ellipse transform="matrix(0.886 0.4636 -0.4636 0.886 471.7727 -275.2771)" fill="#FFFFFF" cx="795.807" cy="821.959" rx="5.51" ry="2.379"/>
	</g>
	<g>
		<path fill="#8F8F8E" d="M634.396,145.467l33.553-64.113l-9.765-5.11l-31.465,60.125
			C629.458,138.801,632.169,141.804,634.396,145.467z"/>
		
			<ellipse transform="matrix(0.886 0.4638 -0.4638 0.886 112.0248 -298.6368)" fill="#1C1334" cx="663.241" cy="78.466" rx="5.51" ry="2.379"/>
	</g>
	
		<rect x="797.184" y="868.624" transform="matrix(0.8661 0.4999 -0.4999 0.8661 575.7892 -275.2399)" fill="#1C1334" stroke="#FDFEFF" stroke-miterlimit="10" width="8.858" height="136.864"/>
	<path fill="#E62176" d="M858.711,861.192l-19.562-11.294l-13.042,22.589l0.012,0.006c-0.087,0.135-0.173,0.273-0.255,0.414
		c-2.82,4.885-0.727,11.374,4.675,14.493c5.402,3.119,12.068,1.687,14.889-3.199c0.081-0.141,0.157-0.284,0.231-0.427l0.011,0.007
		L858.711,861.192z"/>
	<path fill="#FEEE5F" d="M888.946,830.038c0.275-0.974-7.987-6.657-18.657-12.817c-10.669-6.16-19.723-10.475-20.428-9.748
		l-0.021-0.012l-26.084,45.178l0.024,0.014c-0.176,0.27-0.347,0.544-0.51,0.828c-5.641,9.77-1.455,22.748,9.349,28.985
		c10.805,6.237,24.136,3.374,29.776-6.396c0.164-0.282,0.316-0.567,0.463-0.854l0.023,0.014l26.084-45.178L888.946,830.038z"/>
	<path fill="#1C1334" d="M750.485,985.878c0,0,29.124-7.229,35.124,11.976v11.872"/>
	<circle fill="#E62176" cx="742.277" cy="938.26" r="34.468"/>
	<g>
		<path fill="#FFFFFF" d="M600.224,1146.79l-50.842,0.275c-4.666,0.025-13.876-0.339-23.132-3.061
			c-11.521-3.386-19.521-9.318-23.779-17.628c-7.237-14.126-6.035-31.486,3.062-44.226c12.521-17.534,31.053-16.694,44.588-16.085
			l-1.265,27.973c-13.062-0.593-17.344-0.088-20.537,4.383c-3.033,4.248-3.406,10.351-0.93,15.188
			c0.995,1.94,9.372,5.524,21.841,5.457l50.841-0.275L600.224,1146.79z"/>
	</g>
	
		<ellipse transform="matrix(1 -0.0095 0.0095 1 -10.7655 5.7666)" fill="#FEEE5F" cx="599.856" cy="1132.792" rx="8.379" ry="14.003"/>
	
		<ellipse transform="matrix(1 -0.0096 0.0096 1 -10.2969 5.2982)" fill="#FEEE5F" cx="549.236" cy="1080.077" rx="8.379" ry="14.004"/>
	<g>
		<path fill="#23A1DB" d="M631.367,297.732l36.146,35.756c3.317,3.282,9.572,10.052,14.193,18.521
			c5.752,10.542,7.214,20.393,4.349,29.279c-4.871,15.107-17.996,26.532-33.438,29.107c-21.252,3.545-33.762-10.154-42.902-20.154
			l20.674-18.885c8.817,9.655,12.201,12.325,17.621,11.421c5.148-0.858,9.729-4.911,11.396-10.082
			c0.668-2.075-2.721-10.533-11.585-19.302l-36.145-35.755L631.367,297.732z"/>
	</g>
	
		<ellipse transform="matrix(-0.7138 -0.7003 0.7003 -0.7138 849.908 963.0825)" fill="#E62176" cx="621.729" cy="307.889" rx="8.379" ry="14.003"/>
	
		<ellipse transform="matrix(-0.7138 -0.7003 0.7003 -0.7138 796.1962 1087.2734)" fill="#E62176" cx="620.248" cy="380.959" rx="8.379" ry="14.004"/>
	<path fill="none" stroke="#1C1334" stroke-width="3" stroke-miterlimit="10" d="M624.85,1225.786
		c1.948,1.539,3.896,3.079,5.844,4.618c3.533,2.792,7.311,5.975,8.121,10.405c1.124,6.145-4.191,11.85-10.07,13.961
		c-5.879,2.111-12.312,1.75-18.51,2.525c-6.698,0.837-13.629,3.33-17.631,8.764c-4.003,5.435-3.704,14.289,1.954,17.969
		c5.387,3.504,12.427,1.135,18.78,0.167c1.845-0.281,3.787-0.422,5.527,0.25c1.741,0.673,3.21,2.368,3.066,4.228"/>
	<g>
		<polyline fill="#8F8F8E" points="558.936,1165.916 588.801,1160.741 627.351,1237.76 597.941,1251.893 		"/>
		<path fill="#8F8F8E" d="M621.743,1236.967l-53.306-15.033c-6.013-2.721-8.707-9.867-5.986-15.88l17.384-38.421
			c2.721-6.014,9.866-8.708,15.88-5.986l47.334,21.416c6.013,2.72,6.059,10.478,3.339,16.491l-12.616,31.036
			C631.051,1236.602,627.757,1239.688,621.743,1236.967z"/>
		<path fill="#FFFFFF" d="M590.353,1251.147l-52.866-23.919c-6.013-2.72-8.706-9.866-5.986-15.879l17.384-38.422
			c2.721-6.013,9.866-8.707,15.879-5.986l52.865,23.918c6.014,2.721,8.707,9.867,5.987,15.88l-17.384,38.422
			C603.512,1251.175,596.365,1253.868,590.353,1251.147z"/>
		<g>
			<polygon fill="#1C1334" points="619.234,1186.286 582.104,1169.39 587.785,1168.68 623.832,1185.102 			"/>
		</g>
		<g>
			<polygon fill="#1C1334" points="625.904,1184.162 591.261,1168.398 596.943,1167.688 631.285,1183.332 			"/>
		</g>
	</g>
	<path fill="#E62176" d="M728.17,1200.011c-2.416-1.544-4.626-2.405-4.934-1.923l-3.189,4.993l0.01,0.007
		c-0.184,0.534,1.49,2.122,3.835,3.621c2.346,1.498,4.49,2.348,4.896,1.958l0.011,0.006l3.189-4.993
		C732.297,1203.196,730.587,1201.555,728.17,1200.011z"/>
	<path fill="#FEEE5F" d="M463.715,574.187c-2.099,1.459-3.563,2.981-3.272,3.4l3.015,4.335l0.01-0.006
		c0.375,0.334,2.255-0.499,4.291-1.915s3.471-2.888,3.289-3.356l0.009-0.007l-3.015-4.334
		C467.75,571.883,465.813,572.728,463.715,574.187z"/>
	<path fill="#23A1DB" d="M725.156,1204.729c-7.935-5.069-18.475-2.746-23.543,5.188l-22.783,35.665
		c4.593-0.248,9.828,0.905,14.137,5.695c5.304,5.897,12.633,6.987,18.404,6.693l18.973-29.698
		C735.412,1220.338,733.09,1209.797,725.156,1204.729z"/>
	<path fill="#E62176" d="M513.669,619.412l-25.961-37.33c-4.79-6.888-14.257-8.589-21.145-3.799
		c-6.887,4.79-8.588,14.257-3.798,21.144l19.442,27.957C490.259,622.739,502.935,617.045,513.669,619.412z"/>
	<path fill="#E62176" d="M217.773,783.936c-3.336,1.971-5.721,4.109-5.328,4.774l4.074,6.891l0.015-0.009
		c0.53,0.547,3.466-0.501,6.703-2.415s5.571-3.979,5.347-4.708l0.015-0.009l-4.073-6.892
		C224.132,780.905,221.109,781.963,217.773,783.936z"/>
	<path fill="#FFFFFF" d="M221.623,790.448c-10.95,6.473-14.579,20.597-8.106,31.545l29.096,49.222
		c2.502-5.688,7.086-11.297,15.489-13.568c10.345-2.796,16.129-10.968,19.296-18.105l-24.229-40.987
		C246.696,787.604,232.572,783.976,221.623,790.448z"/>
	<path fill="#E62176" d="M566.853,0.852c-2.339-0.602-4.331-0.71-4.451-0.244l-1.241,4.831l0.01,0.003
		c-0.007,0.474,1.748,1.306,4.018,1.889s4.208,0.702,4.431,0.282l0.01,0.002l1.241-4.832C570.989,2.317,569.191,1.452,566.853,0.852
		z"/>
	<path fill="#FEEE5F" d="M565.68,5.417c-7.677-1.973-15.498,2.651-17.471,10.327l-8.867,34.507c3.608-1.403,8.1-1.855,12.803,0.846
		c5.789,3.327,11.938,2.274,16.479,0.525l7.384-28.734C577.979,15.211,573.355,7.389,565.68,5.417z"/>
	<path fill="#23A1DB" d="M470.031,880.584c0.153,16.147-10.45,19.279-23.567,19.403c-13.116,0.125-23.778-2.802-23.933-18.95
		s10.258-39.4,23.375-39.524C459.022,841.387,469.877,864.437,470.031,880.584z"/>
	<path fill="#E62176" d="M481.692,838.084h0.003l-0.017-0.051c-0.037-0.14-0.079-0.279-0.131-0.417l-14.585-46.129l-45.227,0.431
		l-13.702,46.4c-0.05,0.139-0.09,0.278-0.124,0.418l-0.015,0.052l0.003,0c-0.067,0.292-0.111,0.587-0.108,0.884
		c0.061,6.419,16.683,11.465,37.125,11.27c20.442-0.196,36.964-5.558,36.903-11.977
		C481.814,838.668,481.765,838.375,481.692,838.084z"/>
	
		<ellipse transform="matrix(1 -0.0095 0.0095 1 -7.5269 4.2718)" fill="#FFFFFF" cx="444.349" cy="791.702" rx="22.614" ry="7.101"/>
	<g>
		<path fill="#FEEE5F" d="M611.958,593.031c-19.766-0.45-35.282,4.863-46.114,15.789c-13.188,13.303-13.731,29.804-13.701,33.108
			l0.349,36.521c4.931,0.379,10.545,1.654,14.659,5.05c7.17,5.917,14.074,9.121,23.428,3.891l-0.437-45.751
			c0.001-0.019,0.002-0.036,0.003-0.054l0.068,0.395l-0.057-0.587c0.348-5.019,4.319-10.743,20.939-10.371
			c10.531,0.247,19.188-8.074,19.427-18.564C630.76,601.967,622.449,593.269,611.958,593.031z"/>
		
			<ellipse transform="matrix(1 -0.0095 0.0095 1 -5.7945 5.8695)" fill="#1C1334" stroke="#FDFEFF" stroke-width="3" stroke-miterlimit="10" cx="614.09" cy="612.035" rx="16.938" ry="18.702"/>
	</g>
	<path fill="#1C1334" d="M435.164,903.724c0,0,15.766-17.475,42.018-11.241l-5.11,23.261"/>
	<g>
		<path fill="#FEEE5F" d="M592.974,283.726c4.15,11.525-2.661,16.42-12.023,19.791c-9.362,3.371-17.73,3.942-21.88-7.583
			c-4.15-11.526-2.511-30.783,6.852-34.155S588.824,272.199,592.974,283.726z"/>
		<path fill="#E62176" d="M590.692,250.372l0.003-0.001l-0.025-0.033c-0.061-0.09-0.126-0.179-0.198-0.265l-21.985-29.388
			l-32.281,11.623L538,268.966c0,0.111,0.006,0.222,0.017,0.331l0.002,0.042l0.003-0.001c0.024,0.226,0.066,0.448,0.143,0.66
			c1.65,4.582,14.816,4.037,29.406-1.217c14.592-5.253,25.082-13.227,23.433-17.809
			C590.927,250.759,590.817,250.561,590.692,250.372z"/>
		
			<ellipse transform="matrix(0.9409 -0.3388 0.3388 0.9409 -44.0692 200.5084)" fill="#FFFFFF" cx="552.346" cy="226.496" rx="17.155" ry="5.387"/>
	</g>
	<g>
		
			<rect x="707.129" y="300.963" transform="matrix(0.8107 0.5854 -0.5854 0.8107 358.7223 -345.1423)" fill="#E62176" width="12" height="162.47"/>
	</g>
	<path fill="#FEEE5F" d="M801.293,341.308l0.004,0.002l0.019-0.069c0.06-0.181,0.112-0.365,0.153-0.555l16.944-61.535
		l-50.381-31.965l-48.455,41.542c-0.154,0.119-0.299,0.245-0.438,0.375l-0.054,0.046l0.004,0.002
		c-0.284,0.275-0.544,0.569-0.754,0.9c-4.537,7.15,10.245,24.66,33.017,39.108s44.91,20.364,49.447,13.213
		C801.01,342.042,801.165,341.682,801.293,341.308z"/>
	
		<ellipse transform="matrix(0.8444 0.5357 -0.5357 0.8444 264.4277 -384.0072)" fill="#1C1334" cx="793.223" cy="263.168" rx="29.833" ry="9.368"/>
	<g>
		<path fill="#FEEE5F" d="M254.05,270.174c-8.979,23.567-9.215,44.488-0.705,62.171c10.36,21.533,29.964,29.228,33.949,30.602
			l44.05,15.17c2.56-5.763,6.488-11.969,12.327-15.466c10.173-6.092,16.971-13.023,14.677-26.501l-55.182-19.004
			c-0.022-0.009-0.042-0.017-0.064-0.026l0.505,0.085l-0.73-0.181c-5.884-2.56-11.069-9.778-3.527-29.597
			c4.791-12.555-1.515-26.511-14.023-31.277C272.816,251.387,258.814,257.665,254.05,270.174z"/>
		
			<ellipse transform="matrix(0.3256 -0.9455 0.9455 0.3256 -73.3521 448.6038)" fill="#1C1334" cx="277.804" cy="275.723" rx="21.606" ry="23.856"/>
	</g>
	<g>
		<path fill="#FEEE5F" d="M750.485,1174.471c-6.301-2.49-7.147-7.882-9.632-24.17c-1.206-7.908,0.476-22.896,3.331-30.72
			c4.683-12.826,19.421-20.528,23.862-32.411c7.121-19.055,11.854-21.758,24.245-31.347c8.069-6.244,24.765-13.707,34.214-10.756
			c8.881,2.773,10.532,12.629,20.064,14.7c1.73,0.376,3.535,0.501,5.167,1.191c8.878,3.754,13.708,20.921,14.04,29.787
			c0.445,11.879-8.646,20.67-11.188,31.905c-2.369,10.471,1.247,20.076,1.353,30.43c0.104,10.339-5.004,22.913-12.04,30.459
			c-8.271,8.868-17.727,4.227-27.672,4.794c-8.776,0.5-15.882,4.345-25.049,2.991c-8.924-1.316-17.177-5.776-25.475-9.055
			C759.728,1179.907,754.647,1180.712,750.485,1174.471"/>
		<path fill="#FFFFFF" d="M837.294,1033.795c0,0-5.306,10.735,4.341,22.028C841.635,1055.823,846.784,1044.294,837.294,1033.795z"/>
		<path fill="#FFFFFF" d="M862.329,1052.889c0,0-10.024-6.548-22.388,1.682C839.941,1054.571,850.772,1061.06,862.329,1052.889z"/>
		<circle fill="#FFFFFF" cx="840.254" cy="1055.983" r="3.316"/>
	</g>
	<path fill="#8F8F8E" d="M723.451,865.228c8.187-7.939,13.238-19.081,13.121-31.384c-0.228-23.831-19.73-42.964-43.561-42.737
		c-23.83,0.228-42.964,19.73-42.736,43.561c0.18,18.846,12.42,34.745,29.318,40.462
		C689.094,869.257,706.035,861.283,723.451,865.228z"/>
	<polyline fill="none" stroke="#1C1334" stroke-miterlimit="10" points="696.163,791.192 696.656,842.874 668.283,843.145 
		667.867,799.492 	"/>
	<line fill="none" stroke="#1C1334" stroke-miterlimit="10" x1="650.946" y1="826.636" x2="668.125" y2="826.472"/>
	<line fill="none" stroke="#1C1334" stroke-miterlimit="10" x1="696.574" y1="834.226" x2="736.572" y2="833.844"/>
	<line fill="none" stroke="#1C1334" stroke-miterlimit="10" x1="721.144" y1="833.991" x2="721.459" y2="867.053"/>
	<line fill="none" stroke="#1C1334" stroke-miterlimit="10" x1="686.126" y1="842.974" x2="686.453" y2="877.18"/>
	<circle fill="#1C1334" cx="671.398" cy="839.97" r="1.389"/>
	<circle fill="#1C1334" cx="665.097" cy="823.356" r="1.39"/>
	<circle fill="#1C1334" cx="692.458" cy="839.769" r="1.39"/>
	<circle fill="#1C1334" cx="700.272" cy="830.919" r="1.389"/>
	<circle fill="#1C1334" cx="717.88" cy="836.894" r="1.389"/>
	<circle fill="#1C1334" cx="724.9" cy="836.827" r="1.39"/>
	<path fill="none" stroke="#E62176" stroke-width="7" stroke-linecap="round" stroke-miterlimit="10" d="M713.227,817.135
		c5.858,0.44,10.934-3.223,12.801-7.742c1.102-2.667,3.436-5.008,6.208-5.901c4.115-1.328,5.69,1.261,9.247,2.306
		c4.564,1.343,13.069-6.19,14.233-10.376"/>
	<path fill="none" stroke="#E62176" stroke-width="7" stroke-linecap="round" stroke-miterlimit="10" d="M638.888,853.83
		c9.934-2.878,9.63,11.125,18.808,11.224c4.318,0.046,7.723-3.493,10.551-6.758"/>
	<g>
		
			<rect x="903.023" y="1054.39" transform="matrix(0.8454 0.5342 -0.5342 0.8454 745.358 -323.5889)" fill="#8F8F8E" width="57.226" height="142.648"/>
		
			<rect x="907.55" y="1060.291" transform="matrix(0.8454 0.5342 -0.5342 0.8454 745.1696 -323.3896)" fill="#FFFFFF" width="47.318" height="130.442"/>
		<line fill="none" stroke="#8F8F8E" stroke-miterlimit="10" x1="879.991" y1="1173.75" x2="953.171" y2="1057.932"/>
		<line fill="none" stroke="#8F8F8E" stroke-miterlimit="10" x1="885.909" y1="1177.49" x2="959.089" y2="1061.672"/>
		<line fill="none" stroke="#8F8F8E" stroke-miterlimit="10" x1="891.826" y1="1181.229" x2="965.006" y2="1065.412"/>
		<line fill="none" stroke="#8F8F8E" stroke-miterlimit="10" x1="897.744" y1="1184.967" x2="970.924" y2="1069.15"/>
		<line fill="none" stroke="#8F8F8E" stroke-miterlimit="10" x1="903.662" y1="1188.708" x2="976.842" y2="1072.889"/>
		<line fill="none" stroke="#8F8F8E" stroke-miterlimit="10" x1="909.58" y1="1192.446" x2="982.76" y2="1076.628"/>
		<line fill="none" stroke="#8F8F8E" stroke-miterlimit="10" x1="878.459" y1="1162.136" x2="922.137" y2="1189.734"/>
		<line fill="none" stroke="#8F8F8E" stroke-miterlimit="10" x1="882.197" y1="1156.219" x2="925.876" y2="1183.816"/>
		<line fill="none" stroke="#8F8F8E" stroke-miterlimit="10" x1="885.937" y1="1150.301" x2="929.615" y2="1177.898"/>
		<line fill="none" stroke="#8F8F8E" stroke-miterlimit="10" x1="889.676" y1="1144.383" x2="933.354" y2="1171.981"/>
		<line fill="none" stroke="#8F8F8E" stroke-miterlimit="10" x1="893.415" y1="1138.465" x2="937.093" y2="1166.063"/>
		<line fill="none" stroke="#8F8F8E" stroke-miterlimit="10" x1="897.154" y1="1132.547" x2="940.832" y2="1160.146"/>
		<line fill="none" stroke="#8F8F8E" stroke-miterlimit="10" x1="900.893" y1="1126.63" x2="944.571" y2="1154.228"/>
		<line fill="none" stroke="#8F8F8E" stroke-miterlimit="10" x1="904.632" y1="1120.712" x2="948.311" y2="1148.31"/>
		<line fill="none" stroke="#8F8F8E" stroke-miterlimit="10" x1="908.371" y1="1114.794" x2="952.049" y2="1142.393"/>
		<line fill="none" stroke="#8F8F8E" stroke-miterlimit="10" x1="912.11" y1="1108.876" x2="955.789" y2="1136.475"/>
		<line fill="none" stroke="#8F8F8E" stroke-miterlimit="10" x1="915.85" y1="1102.959" x2="959.527" y2="1130.558"/>
		<line fill="none" stroke="#8F8F8E" stroke-miterlimit="10" x1="919.588" y1="1097.041" x2="963.267" y2="1124.639"/>
		<line fill="none" stroke="#8F8F8E" stroke-miterlimit="10" x1="923.328" y1="1091.124" x2="967.006" y2="1118.722"/>
		<line fill="none" stroke="#8F8F8E" stroke-miterlimit="10" x1="927.066" y1="1085.206" x2="970.745" y2="1112.804"/>
		<line fill="none" stroke="#8F8F8E" stroke-miterlimit="10" x1="930.806" y1="1079.288" x2="974.484" y2="1106.887"/>
		<line fill="none" stroke="#8F8F8E" stroke-miterlimit="10" x1="934.545" y1="1073.371" x2="978.223" y2="1100.969"/>
		<line fill="none" stroke="#8F8F8E" stroke-miterlimit="10" x1="938.284" y1="1067.452" x2="981.963" y2="1095.051"/>
		<line fill="none" stroke="#8F8F8E" stroke-miterlimit="10" x1="942.023" y1="1061.535" x2="985.701" y2="1089.133"/>
	</g>
	<path fill="#1C1334" d="M872.495,1144.546c0,0,30.804,6.078,30.985,25.12s36.029,26.226,36.029,26.226l0.257,26.888l-87.098-8.362"
		/>
	<path fill="#E62176" d="M397.515,1038.83l0.2,1.047c9.611,1.917,23.583,2.991,36.448-2.471
		c22.088-9.376,33.441-32.164,52.615-34.217l-0.277-1.451l-7.962-41.749c-4.482-23.498-28.865-38.59-54.459-33.708
		c-25.596,4.882-42.711,27.889-38.229,51.387L397.515,1038.83z"/>
	<g>
		<path fill="#1C1334" stroke="#FDFEFF" stroke-miterlimit="10" d="M438.446,994.98c-25.661,4.895-46.749,2.829-53.396,1.946
			c-1.17-0.155-2.298-1.201-2.563-2.484c-0.528-2.561-1.375-6.693-1.718-8.489c-0.514-2.697,5.211-5.696,5.211-5.696l1.042,6.136
			c10.338,1.231,53.648,4.67,93.211-17.679l-1.426-5.407c0,0,5.568,0.75,5.958,2.79l1.723,9.036c0,0,0.269,2.139-1.846,3.357
			C469.105,987.431,452.976,992.209,438.446,994.98z"/>
	</g>
	<polygon fill="#FFFFFF" points="505.973,1231.792 426.896,1251.091 421.345,1228.21 423.297,1223.19 508.331,1226.786 	"/>
	
		<rect x="424.92" y="1213.216" transform="matrix(0.9718 -0.2358 0.2358 0.9718 -275.7152 144.3804)" fill="#E62176" width="81.789" height="23.545"/>
	<path fill="none" stroke="#1C1334" stroke-width="12" stroke-linecap="round" stroke-miterlimit="10" d="M450.783,1004.292
		c4.166,2.37,11.177,3.328,12.78,8.296c2.991,9.269-4.736,13.36-9.784,19.494c-7.651,9.297-0.885,18.365,8.906,22.765
		c1.436,0.645,2.931,1.167,4.301,1.939c7.13,4.023,7.448,14.126,3.643,20.607c-5.586,9.516-14.082,5.076-22.864,6.969
		c-8.969,1.934-14.238,12.58-12.918,21.629c0.833,5.711,5.817,9.72,9.371,14.268c11.643,14.899,12.494,39,15.792,57.017
		c2.489,13.597,4.917,27.205,7.297,40.821"/>
	<g>
		<path fill="#23A1DB" d="M467.356,1224.097c-2.884,0.028-5.447-2.033-5.96-4.967c-2.46-14.079-4.913-27.797-7.288-40.771
			c-0.73-3.991-1.327-8.148-1.958-12.55c-2.112-14.727-4.507-31.42-12.66-41.854c-0.781-0.999-1.681-2.013-2.633-3.086
			c-3.312-3.733-7.066-7.965-7.948-14.01c-1.677-11.504,4.991-25.644,17.591-28.361c3.401-0.733,6.588-0.698,9.399-0.673
			c5.679,0.057,7.569-0.087,9.555-3.468c1.496-2.548,1.991-5.942,1.262-8.648c-0.46-1.708-1.362-2.953-2.678-3.695
			c-0.61-0.345-1.401-0.672-2.238-1.021c-0.527-0.219-1.053-0.438-1.574-0.671c-8.175-3.675-13.754-9.586-15.308-16.223
			c-0.889-3.797-0.877-9.627,4.228-15.828c1.34-1.628,2.751-3.042,4.116-4.408c4.603-4.605,5.654-6.134,4.59-9.432
			c-0.261-0.812-3.521-2.087-5.087-2.702c-1.651-0.646-3.358-1.315-4.951-2.222c-2.88-1.638-3.886-5.302-2.248-8.181
			c1.64-2.881,5.303-3.887,8.183-2.249c0.841,0.479,2.08,0.965,3.393,1.479c4.271,1.673,10.121,3.966,12.131,10.19
			c3.432,10.635-2.899,16.971-7.521,21.598c-1.218,1.219-2.368,2.37-3.34,3.551c-2.405,2.922-1.956,4.84-1.809,5.469
			c0.663,2.833,4.016,5.978,8.54,8.011c0.416,0.186,0.84,0.361,1.263,0.538c1.074,0.447,2.291,0.953,3.526,1.649
			c4.166,2.349,7.061,6.162,8.371,11.025c1.571,5.832,0.636,12.502-2.5,17.845c-5.598,9.538-13.937,9.454-20.024,9.393
			c-2.395-0.023-4.658-0.048-6.75,0.404c-4.768,1.028-9.307,7.618-8.245,14.898c0.364,2.497,2.64,5.062,5.05,7.779
			c1.032,1.164,2.1,2.367,3.111,3.662c10.123,12.953,12.759,31.327,15.083,47.539c0.615,4.283,1.195,8.331,1.884,12.091
			c2.381,13.007,4.839,26.757,7.305,40.867c0.57,3.265-1.613,6.374-4.877,6.943C468.009,1224.065,467.681,1224.095,467.356,1224.097
			z"/>
	</g>
	<path fill="#1C1334" stroke="#FDFEFF" stroke-miterlimit="10" d="M424.078,926.28c-25.596,4.882-42.711,27.889-38.229,51.387
		l1.914,10.035c0,0,50.604,8.743,92.689-17.679l-1.914-10.035C474.056,936.491,449.673,921.398,424.078,926.28z"/>
	<path fill="#23A1DB" d="M430.504,750.093c14.989-1.143,16.17-17.155,16.17-17.155s1.772-4.521,6.05-7.63l-68.452-54.545
		c-10.252-8.17-25.615-5.942-34.313,4.974s-7.439,26.389,2.812,34.558l60.998,48.605
		C417.964,754.656,423.673,750.615,430.504,750.093z"/>
	<path fill="#E62176" d="M396.27,673.995c3.97,3.43,5.147,8.021,3.267,10.75c-0.916,1.331-1.098,1.974-3.343,4.564
		c-2.42,2.793-8.543,0.549-11.111-1.669c-2.655-2.294-5.52-7.226-3.622-10.62c1.334-2.389,2.98-3.863,3.698-4.694
		C387.325,669.818,392.299,670.566,396.27,673.995z"/>
	
		<ellipse transform="matrix(0.6537 -0.7567 0.7567 0.6537 -382.2235 530.9263)" fill="#FFFFFF" cx="389.005" cy="683.1" rx="6" ry="9.5"/>
	
		<ellipse transform="matrix(0.6536 -0.7568 0.7568 0.6536 -381.976 530.9028)" fill="#1C1334" cx="389.017" cy="682.755" rx="1.897" ry="3.004"/>
	
		<line fill="none" stroke="#1C1334" stroke-width="4" stroke-miterlimit="10" x1="388.982" y1="682.755" x2="372.711" y2="701.825"/>
	<g>
		<path fill="#E62176" d="M373.944,701.905c3.971,3.429,5.147,8.022,3.268,10.75c-0.917,1.332-1.097,1.973-3.343,4.563
			c-2.42,2.793-8.543,0.549-11.112-1.669c-2.655-2.294-5.519-7.227-3.622-10.621c1.334-2.388,2.98-3.863,3.698-4.694
			C364.999,697.728,369.974,698.476,373.944,701.905z"/>
		
			<ellipse transform="matrix(0.6537 -0.7568 0.7568 0.6537 -411.079 523.7134)" fill="#FFFFFF" cx="366.679" cy="711.009" rx="6" ry="9.5"/>
		
			<ellipse transform="matrix(0.6537 -0.7568 0.7568 0.6537 -410.8158 523.6077)" fill="#1C1334" cx="366.69" cy="710.665" rx="1.897" ry="3.004"/>
	</g>
	<path fill="#23A1DB" d="M527.605,212.952c-7.253,9.065-17.981,2.849-17.981,2.849s-3.655-0.836-7.5,0.539l-5.002-67.407
		c-0.749-10.095,7.358-18.925,18.108-19.723c10.75-0.797,20.072,6.739,20.821,16.834l4.457,60.067
		C535.973,206.939,530.91,208.822,527.605,212.952z"/>
	<path fill="#E62176" d="M493.961,157.993c0.459,4.026,2.877,6.774,5.436,6.764c1.248-0.005,1.736,0.159,4.366-0.146
		c2.835-0.328,4.068-5.211,3.771-7.814c-0.308-2.693-2.207-6.667-5.199-6.934c-2.104-0.188-3.761,0.22-4.603,0.316
		C495.189,150.469,493.501,153.967,493.961,157.993z"/>
	
		<ellipse transform="matrix(-0.9936 0.1134 -0.1134 -0.9936 1020.4566 256.6006)" fill="#FFFFFF" cx="502.931" cy="157.322" rx="4.633" ry="7.336"/>
	
		<ellipse transform="matrix(-0.9935 0.1138 -0.1138 -0.9935 1020.0334 256.1311)" fill="#1C1334" cx="502.706" cy="157.179" rx="1.465" ry="2.319"/>
	
		<line fill="none" stroke="#1C1334" stroke-width="4" stroke-miterlimit="10" x1="502.721" y1="157.157" x2="521.968" y2="155.077"/>
	<g>
		<path fill="#E62176" d="M521.481,155.898c0.46,4.026,2.877,6.774,5.436,6.764c1.248-0.005,1.736,0.159,4.366-0.146
			c2.835-0.328,4.069-5.212,3.771-7.815c-0.307-2.692-2.207-6.666-5.198-6.934c-2.104-0.188-3.762,0.221-4.604,0.316
			C522.711,148.375,521.022,151.873,521.481,155.898z"/>
		
			<ellipse transform="matrix(-0.9935 0.1134 -0.1134 -0.9935 1075.0875 249.275)" fill="#FFFFFF" cx="530.451" cy="155.227" rx="4.633" ry="7.337"/>
		
			<ellipse transform="matrix(-0.9935 0.1135 -0.1135 -0.9935 1074.6284 248.9934)" fill="#1C1334" cx="530.227" cy="155.084" rx="1.465" ry="2.32"/>
	</g>
	<g>
		<path fill="#E62176" d="M307.834,465.863l-38.839-32.693c-1.252-1.336-7.596-7.656-15.574-7.77
			c-4.609-0.066-8.819,1.872-12.51,5.758c-4.295,4.524-5.913,8.865-4.804,12.903c1.766,6.434,9.73,8.241,10.633,8.427
			c2.014,0.414,3.975-1.022,4.379-3.181c0.403-2.169-0.902-4.263-2.917-4.675c-2.041-0.437-4.661-1.802-4.958-2.905
			c-0.148-0.546,0.286-2.188,2.845-4.883c2.239-2.356,4.581-3.484,7.16-3.447c5.563,0.079,10.493,5.489,10.542,5.544l0.398,0.39
			l39.661,33.385C304.937,470.276,306.256,467.901,307.834,465.863z"/>
		<path fill="#E62176" d="M374.493,521.976l-26.524-22.327c-1.856,1.822-4.271,3.226-7.016,4.301l28.917,24.342
			c1.609,1.354,3.95,1.039,5.226-0.705c0.37-0.504,0.61-1.073,0.725-1.66C376.104,524.487,375.638,522.938,374.493,521.976z"/>
	</g>
	<path fill="#FFFFFF" d="M261.418,1126.082l8.598,62.564l36.879,48.657c0,0,6.657,7.35,21.607,1.998
		c14.95-5.354,75.419-30.951,75.419-30.951s7.765-2.556,12.088-21.098s8.949-35.587,8.949-35.587s4.13-8.54-8.489-20.919
		c-12.618-12.381-43.915-43.588-43.915-43.588s-6.577-6.801-27.506-0.232c-16.576,5.204-71.244,27.181-71.244,27.181
		S264.831,1116.905,261.418,1126.082z"/>
	<path fill="#FFFFFF" d="M261.418,1126.082l43.618,70.23c0,0,9.681,13.118,24.63,7.765c14.95-5.354,56.871-23.223,73.902-32.707
		c17.032-9.483,21.391-19.705,21.391-19.705s4.13-8.54-8.489-20.919c-12.618-12.381-43.915-43.588-43.915-43.588
		s-6.577-6.801-27.506-0.232c-16.576,5.204-71.244,27.181-71.244,27.181S264.831,1116.905,261.418,1126.082z"/>
	<path fill="#1C1334" d="M278.676,1135.123l24.198,31.474c0,0,10.088,16.139,25.037,10.747c11.23-4.051,81.216-30.077,81.216-30.077
		s7.361-4.06-2.127-13.368c-9.488-9.31-40.593-35.676-40.593-35.676s0.721-6.546-15.016-1.607
		c-12.464,3.912-72.025,23.938-72.025,23.938S270.898,1123.909,278.676,1135.123z"/>
	<path fill="#23A1DB" d="M294.492,1155.695c17.939-7.084,45.467-17.933,53.856-20.566c15.736-4.938,20.8,1.953,20.8,1.953
		s8.834,8.809,18.313,18.235c12.363-4.591,21.666-8.05,21.666-8.05s7.361-4.06-2.127-13.368
		c-9.488-9.31-38.113-37.854-38.113-37.854s-5.195-7.296-19.523-2.367c-12.353,4.25-69.997,26.876-69.997,26.876
		s-8.468,3.356-0.691,14.569L294.492,1155.695z"/>
	<path fill="#FFFFFF" d="M876.089,1254.408c0.038-0.085,0.082-0.17,0.104-0.262l5.329-22.375l-23.16-5.516l-5.329,22.374
		c-0.048,0.199-0.039,0.406-0.007,0.616C859.383,1248.449,868.384,1248.762,876.089,1254.408z"/>
	<g>
		<path fill="#23A1DB" d="M499.329,683.821c5.079-2.73,12.056-5.633,18.163-5.203l-0.206-21.517l-23.807,0.227l0.22,22.999
			C493.713,681.825,495.965,683.113,499.329,683.821z"/>
		<ellipse transform="matrix(1 -0.0096 0.0096 1 -6.1476 4.938)" fill="#23A1DB" cx="512.863" cy="644.797" rx="8.903" ry="9.828"/>
		
			<ellipse transform="matrix(1 -0.0095 0.0095 1 -6.2314 4.8392)" fill="#1C1334" cx="505.383" cy="657.215" rx="11.904" ry="4.188"/>
		<path fill="#FEEE5F" d="M505.343,653.027c-6.574,0.062-11.886,1.988-11.863,4.301c0.009,0.948,0.922,1.81,2.438,2.498
			c0.817-1.438,4.66-2.557,9.295-2.602c4.775-0.045,8.727,1.067,9.406,2.555c1.675-0.738,2.677-1.671,2.667-2.678
			C517.265,654.789,511.917,652.964,505.343,653.027z"/>
	</g>
	
		<ellipse transform="matrix(-0.9728 -0.2317 0.2317 -0.9728 1425.7271 2597.9192)" fill="#FFFFFF" cx="865.41" cy="1215.243" rx="8.902" ry="9.828"/>
	
		<ellipse transform="matrix(-0.9728 -0.2317 0.2317 -0.9728 1431.4868 2626.1328)" fill="#1C1334" cx="869.941" cy="1229.014" rx="11.904" ry="4.188"/>
	<path fill="#FEEE5F" d="M870.912,1224.94c6.396,1.523,11.146,4.582,10.609,6.832c-0.22,0.923-1.302,1.56-2.932,1.893
		c-0.478-1.584-3.976-3.53-8.484-4.603c-4.646-1.106-8.745-0.902-9.738,0.398c-1.47-1.093-2.239-2.225-2.006-3.204
		C858.896,1224.006,864.516,1223.417,870.912,1224.94z"/>
	<path fill="#E62176" d="M343.448,218.29c2.061-2.069,4.015-4.249,5.796-6.638l-8.782-9.54l18.327-16.874
		c0.64-4.422,1.088-8.871,1.538-13.323l-25.798,23.752l-10.138-11.011l34.454-31.722l3.347,3.636
		c0.567-3.522,1.27-7.034,2.219-10.524l-37.34-40.556c-1.454-1.58-3.936-1.682-5.515-0.228l-0.702,0.646
		c-1.579,1.454-1.682,3.936-0.228,5.515l15.843,17.207l-34.454,31.723l-15.843-17.208c-1.454-1.579-3.936-1.682-5.515-0.228
		l-0.702,0.646c-1.579,1.455-1.682,3.936-0.228,5.515L343.448,218.29z M342.402,135.076l10.51,11.415l-34.455,31.722l-10.509-11.414
		L342.402,135.076z"/>
	<path fill="#FFFFFF" d="M503.108,87.145c4.128-4.027,10.034-8.742,16.021-10.014l-6.135-20.624l-22.82,6.788l6.558,22.045
		C497.159,86.775,499.679,87.392,503.108,87.145z"/>
	
		<ellipse transform="matrix(0.9585 -0.2851 0.2851 0.9585 7.8888 145.9886)" fill="#FFFFFF" cx="505.347" cy="45.9" rx="8.903" ry="9.827"/>
	
		<ellipse transform="matrix(0.9585 -0.2851 0.2851 0.9585 3.7401 145.4938)" fill="#1C1334" cx="501.584" cy="59.901" rx="11.904" ry="4.188"/>
	<path fill="#FEEE5F" d="M500.39,55.887c-6.302,1.875-10.875,5.192-10.216,7.409c0.271,0.908,1.387,1.485,3.032,1.728
		c0.389-1.608,3.774-3.745,8.217-5.066c4.577-1.362,8.682-1.384,9.746-0.141c1.406-1.171,2.112-2.345,1.825-3.309
		C512.334,54.29,506.691,54.012,500.39,55.887z"/>
	<g>
		<path fill="#FEEE5F" d="M385.446,620.197c-8.509,2.261-15.81,6.803-25.063,7.767c-19.448,2.027-39.111-4.07-54.637-15.798
			c-9.765-7.376-16.291-20.522-12.198-32.054c1.244-3.505,3.404-6.771,3.667-10.481c0.519-7.315-6.334-13.129-7.682-20.337
			c-1.637-8.759,5.013-16.654,10.966-23.283c12.558-13.982,8.224-38.407,29.338-45.25c8.85-2.868,15.893,4.219,24.868,0.402
			c1.63-0.693,3.176-1.635,4.906-2.014c9.416-2.068,23.278,9.151,28.672,16.193c7.229,9.438,4.89,21.867,9.308,32.503
			c4.119,9.915,12.621,15.663,18.691,24.054c9.208,12.726,10.297,31.135,5.234,45.701c-5.594,16.094-20.345,18.817-35.01,22.328
			C386.151,620.014,385.797,620.104,385.446,620.197z"/>
		<path fill="#FFFFFF" d="M332.126,465.328c0,0,1.874,11.827,16.272,15.468C348.398,480.796,345.938,468.412,332.126,465.328z"/>
		<path fill="#FFFFFF" d="M363.592,466.442c0,0-11.966,0.449-17.3,14.311C346.292,480.753,358.882,479.789,363.592,466.442z"/>
		<circle fill="#FFFFFF" cx="347.364" cy="481.725" r="3.316"/>
	</g>
	<g>
		<path fill="#5E5E5E" d="M285.536,709.586c-6.642,5.779-11.194,13.073-19.075,18.018c-16.564,10.389-36.902,13.582-56.007,9.896
			c-12.016-2.318-23.667-11.241-25.076-23.397c-0.428-3.694,0.071-7.578-1.328-11.024c-2.758-6.795-11.472-8.993-15.858-14.87
			c-5.329-7.141-2.839-17.159-0.417-25.732c5.111-18.085-9.544-38.1,6.394-53.548c6.68-6.474,16.125-3.216,22.5-10.598
			c1.158-1.341,2.13-2.867,3.516-3.971c7.541-6.005,24.929-2.044,32.874,1.9c10.649,5.287,14.026,17.475,22.681,25.075
			c8.066,7.085,18.231,8.498,27.379,13.354c13.874,7.366,22.965,23.411,24.839,38.718c2.071,16.912-9.971,25.856-21.587,35.472
			C286.088,709.111,285.81,709.347,285.536,709.586z"/>
		<path fill="#5E5E5E" d="M169.422,594.066c0,0,6.895,9.79,21.424,6.712C190.846,600.779,183.18,590.746,169.422,594.066z"/>
		<path fill="#5E5E5E" d="M198.158,581.199c0,0-10.544,5.676-9.222,20.469C188.937,601.668,199.812,595.254,198.158,581.199z"/>
		<circle fill="#5E5E5E" cx="190.327" cy="602.068" r="3.316"/>
	</g>
	<circle fill="#FFFFFF" cx="607.862" cy="797.239" r="8.006"/>
	<circle fill="#FEEE5F" cx="387.296" cy="1062.273" r="6.45"/>
	<circle fill="#FFFFFF" cx="513.828" cy="1009.726" r="10.218"/>
	<circle fill="#FFFFFF" cx="393.727" cy="870.307" r="4.722"/>
	<circle fill="#FFFFFF" cx="234.014" cy="1025.569" r="2.595"/>
	<circle fill="#FFFFFF" cx="771.731" cy="1207.443" r="8.169"/>
	<circle fill="#FFFFFF" cx="367.787" cy="1240.827" r="3.688"/>
	<circle fill="#FEEE5F" cx="212.504" cy="1225.348" r="10.105"/>
	<circle fill="#E62176" cx="906.204" cy="1219.106" r="12.789"/>
	<circle fill="#FFFFFF" cx="883.3" cy="1050.367" r="8.933"/>
	<polyline fill="#FFFFFF" points="678.223,901.98 692.68,886.022 692.68,899.991 703.117,897.06 703.117,911.06 707.81,915.743 
		665.574,907.56 674.109,899.991 	"/>
	<polygon fill="#FFFFFF" points="456.173,915.743 456.173,903.792 466.962,909.768 477.182,892.482 481.817,904.113 489.857,908.06 
		489.857,921.046 477.182,924.301 476.5,916.764 468.734,924.301 	"/>
	<polyline fill="#FFFFFF" points="481.817,1184.162 481.817,1170.018 489.857,1173.75 489.857,1155.695 503.609,1164.1 
		512.863,1158.182 517.286,1170.018 	"/>
	<polyline fill="#FFFFFF" points="592.358,718.52 615.868,718.52 614.09,712.37 607.862,715.445 606.424,708.232 599.856,712.37 
		597.152,704.299 591.334,713.097 586.325,718.52 	"/>
	<polyline fill="#FFFFFF" points="533.441,602.06 540.248,590.473 540.248,596.266 549.984,590.473 552.142,602.06 555.527,602.06 
		557.901,607.124 	"/>
	<path fill="#FFFFFF" d="M760.045,950.56c-11.067,15.286-30.141,20.679-34.973,17.18c-4.833-3.5-7.279-21.716,2.787-37.68
		c10.402-16.5,30.32-22.427,35.152-18.927C767.845,914.63,771.113,935.272,760.045,950.56z"/>
	
		<ellipse transform="matrix(0.7512 0.6601 -0.6601 0.7512 792.18 -277.048)" fill="#23A1DB" cx="763.562" cy="912.209" rx="4.05" ry="1.804"/>
	<polyline fill="#FFFFFF" points="638.242,1283.61 645.049,1272.024 645.049,1277.816 654.785,1272.024 656.942,1283.61 
		660.328,1283.61 662.702,1288.674 	"/>
	<circle fill="#8F8F8E" cx="420.752" cy="332.445" r="12.962"/>
	<circle fill="#FFFFFF" cx="359.529" cy="255.546" r="5.716"/>
	<circle fill="#FEEE5F" cx="483.178" cy="144.54" r="6.678"/>
	<circle fill="#FFFFFF" cx="586.325" cy="161.263" r="7.911"/>
	<polygon fill="#FFFFFF" points="396.902,167.578 405.353,159.128 408.757,170.983 428.206,165.986 423.26,177.488 426.154,185.963 
		416.971,195.146 405.707,188.484 410.555,182.674 399.734,182.511 	"/>
	<polyline fill="#FFFFFF" points="499.593,303.407 523.103,303.407 521.324,297.257 515.097,300.332 513.659,293.12 
		507.091,297.257 504.387,289.186 498.569,297.984 493.56,303.407 	"/>
	<circle fill="#23A1DB" cx="462.997" cy="535.04" r="30.117"/>
	<path fill="#FFFFFF" d="M481.022,529.416c4.576,15.843-1.966,31.879-6.975,33.326c-5.008,1.446-18.871-6.666-24.452-22.182
		c-5.769-16.038,0.86-32.942,5.869-34.388C460.472,504.724,476.446,513.573,481.022,529.416z"/>
	
		<ellipse transform="matrix(0.9826 -0.186 0.186 0.9826 -86.2056 93.7275)" fill="#23A1DB" cx="456.501" cy="506.373" rx="3.538" ry="1.576"/>
	<circle fill="#8F8F8E" cx="345.038" cy="418.919" r="7.952"/>
	<circle fill="#23A1DB" cx="648.314" cy="557.309" r="9.743"/>
	<polyline fill="#FFFFFF" points="676.511,289.379 665.574,303.407 672.366,303.407 672.366,312.825 687.479,312.825 
		680.773,305.638 689.09,301.102 	"/>
	<circle fill="#23A1DB" cx="265.912" cy="570.462" r="5.303"/>
	<circle fill="#FFFFFF" cx="749.069" cy="543.578" r="6.507"/>
</g>
</svg>
